<?xml version="1.0" encoding="UTF-8" standalone="no"?><!DOCTYPE svg PUBLIC "-//W3C//DTD SVG 1.1//EN" "http://www.w3.org/Graphics/SVG/1.1/DTD/svg11.dtd"><svg width="100%" height="100%" viewBox="0 0 100 100" version="1.1" xmlns="http://www.w3.org/2000/svg" xmlns:xlink="http://www.w3.org/1999/xlink" xml:space="preserve" style="fill-rule:evenodd;clip-rule:evenodd;stroke-miterlimit:10;"><g><path d="M49.998,-0.002c-27.615,0 -50.001,22.384 -50.001,50.001c0,27.613 22.386,49.999 50.001,49.999c27.614,0 50,-22.386 50,-49.999c0,-27.617 -22.386,-50.001 -50,-50.001Z" style="fill:#48a1af;fill-rule:nonzero;"/><path d="M66.307,57.823c-1.573,-4.985 -3.754,-9.208 -8.386,-9.208l-15.945,0c-4.632,0 -6.813,4.223 -8.385,9.208c-1.572,4.99 -3.492,24.94 -3.492,24.94c0,5.086 3.753,9.209 8.383,9.209l22.934,0c4.63,0 8.383,-4.123 8.383,-9.209c0,0 -1.92,-19.95 -3.492,-24.94Z" style="fill:#595958;fill-rule:nonzero;"/><path d="M49.716,12.597c-9.332,0 -16.896,7.565 -16.896,16.895c0,9.336 7.564,16.9 16.896,16.9c9.332,0 16.897,-7.564 16.897,-16.9c0,-9.33 -7.565,-16.895 -16.897,-16.895Z" style="fill:#e9c29c;fill-rule:nonzero;"/><path d="M49.716,12.597c-9.332,0 -16.896,7.565 -16.896,16.895c0,0 6.966,-0.491 13.275,-3.343c6.543,-2.958 8.997,-7.022 8.997,-7.022l11.521,10.366c0,-9.331 -7.565,-16.896 -16.897,-16.896Z" style="fill:#a46434;fill-rule:nonzero;"/><path d="M44.651,29.557c-1.278,0 -2.315,1.096 -2.315,2.448c0,1.35 1.037,2.444 2.315,2.444c1.279,0 2.316,-1.094 2.316,-2.444c0,-1.352 -1.037,-2.448 -2.316,-2.448Z" style="fill:#343433;fill-rule:nonzero;"/><path d="M54.683,29.557c-1.279,0 -2.315,1.096 -2.315,2.448c0,1.35 1.036,2.444 2.315,2.444c1.279,0 2.317,-1.094 2.317,-2.444c0,-1.352 -1.038,-2.448 -2.317,-2.448Z" style="fill:#343433;fill-rule:nonzero;"/><path d="M55.405,30.099c-0.508,0 -0.923,0.437 -0.923,0.978c0,0.539 0.415,0.979 0.923,0.979c0.513,0 0.926,-0.44 0.926,-0.979c0,-0.541 -0.413,-0.978 -0.926,-0.978Z" style="fill:#fff;fill-rule:nonzero;"/><path d="M45.349,30.099c-0.511,0 -0.924,0.437 -0.924,0.978c0,0.539 0.413,0.979 0.924,0.979c0.512,0 0.928,-0.44 0.928,-0.979c-0.001,-0.541 -0.416,-0.978 -0.928,-0.978Z" style="fill:#fff;fill-rule:nonzero;"/><path d="M30.099,82.763c0,5.086 3.753,9.209 8.383,9.209l1.731,-9.181l-10.114,-0.028Z" style="fill:#e9c29c;fill-rule:nonzero;"/><path d="M41.976,48.615c-4.632,0 -6.813,4.223 -8.385,9.208c-1.572,4.99 -3.492,24.94 -3.492,24.94l10.115,0.028l4.593,-34.187l-2.831,0.011Z" style="fill:#686866;fill-rule:nonzero;"/><path d="M59.782,82.791l1.731,9.181c4.63,0 8.383,-4.123 8.383,-9.209l-10.114,0.028Z" style="fill:#e9c29c;fill-rule:nonzero;"/><path d="M66.404,57.823c-1.572,-4.985 -3.753,-9.208 -8.385,-9.208l-2.831,-0.011l4.594,34.187l10.114,-0.028c0,0 -1.92,-19.95 -3.492,-24.94Z" style="fill:#686866;fill-rule:nonzero;"/><path d="M65.774,24.233l-11.166,2.998c0,0 -3.594,2.263 -4.892,2.263c-1.298,0 -5.067,-2.32 -5.067,-2.32l-10.991,-2.941c-0.542,1.655 -0.839,3.422 -0.839,5.259c0,1.999 0.348,3.916 0.985,5.694c0.185,0.516 8.452,2.946 10.623,2.946c2.171,0 3.908,-3.033 5.234,-3.033c1.326,0 2.819,3.033 5.094,3.033c2.276,0 10.682,-2.418 10.865,-2.926c0.642,-1.785 0.993,-3.708 0.993,-5.714c0,-1.837 -0.297,-3.603 -0.839,-5.259Zm-21.103,10.955c-1.759,0 -3.184,-1.426 -3.184,-3.185c0,-1.758 1.425,-3.184 3.184,-3.184c1.759,0 3.184,1.426 3.184,3.184c0,1.759 -1.425,3.185 -3.184,3.185Zm10.013,0c-1.759,0 -3.184,-1.426 -3.184,-3.185c0,-1.758 1.425,-3.184 3.184,-3.184c1.758,0 3.184,1.426 3.184,3.184c0,1.759 -1.425,3.185 -3.184,3.185Z" style="fill:#686866;fill-rule:nonzero;"/><path d="M49.716,8.023c-8.829,0 -15.986,8.308 -15.986,17.926c0,0 1.883,1.242 15.893,1.242c14.01,0 16.08,-1.242 16.08,-1.242c0,-9.618 -7.158,-17.926 -15.987,-17.926Z" style="fill:#5b5b5b;fill-rule:nonzero;"/><path d="M49.716,8.023c-6.586,0 -11.925,8.308 -11.925,17.926c0,0 1.405,1.242 11.856,1.242c10.45,0 11.995,-1.242 11.995,-1.242c0,-9.618 -5.339,-17.926 -11.926,-17.926Z" style="fill:none;stroke:#494948;stroke-width:0.42px;"/><path d="M49.716,8.023c-2.41,0 -4.363,8.308 -4.363,17.926c0,0 0.514,1.242 4.338,1.242c3.823,0 4.389,-1.242 4.389,-1.242c-0.001,-9.618 -1.954,-17.926 -4.364,-17.926Z" style="fill:none;stroke:#494948;stroke-width:0.42px;"/><path d="M49.716,25.354c-10.106,0 -18.297,-5.357 -18.297,1.764c0,0 2.155,1.421 18.19,1.421c16.035,0 18.404,-1.421 18.404,-1.421c0,-7.016 -8.191,-1.764 -18.297,-1.764Z" style="fill:#5b5b5b;fill-rule:nonzero;"/></g><circle cx="50" cy="50" r="50" style="fill-opacity:0.733333;"/><g id="Layer1"><g><path d="M5.873,63.851c1.765,-0.472 3.524,0.791 4.572,1.961c0.246,0.274 0.605,0.44 0.95,0.241c0.526,-0.304 0.232,-0.813 0.184,-0.896l-2.201,-3.812c-0.048,-0.082 -0.342,-0.592 -0.868,-0.288c-0.23,0.133 -0.269,0.33 -0.244,0.601c0.025,0.271 -0.017,0.426 -0.263,0.568c-0.428,0.247 -2.063,0.337 -2.681,0.671l0.551,0.954Zm7.629,6.989c0.34,1.425 -0.244,2.88 -1.348,3.89l0.55,0.953c1.747,-0.921 2.597,-4.041 1.852,-5.408c-0.171,-0.296 -0.503,-0.454 -0.816,-0.274c-0.345,0.199 -0.301,0.503 -0.238,0.839Zm-2.088,4.317c-0.902,0.258 -1.554,-0.264 -1.953,-0.954l-4.497,-7.79c-0.399,-0.69 -0.525,-1.516 0.169,-2.135l-0.55,-0.954c-3.122,1.956 -3.702,5.885 -1.511,9.681c1.945,3.369 5.239,5.127 8.893,3.105l-0.551,-0.953Z" style="fill:#cb0101;fill-rule:nonzero;"/><path d="M14.78,60.833l-0.049,0.029l2.193,8.353c0.361,1.347 0.136,1.981 -0.105,2.361c-0.257,0.39 -0.546,0.535 -0.318,0.929c0.275,0.477 0.876,0.151 1.205,-0.038l1.889,-1.091c0.329,-0.19 0.864,-0.477 0.599,-0.938c-0.19,-0.328 -0.477,-0.294 -0.806,-0.257c-0.701,0.076 -1.093,-0.071 -1.409,-1.225l-1.7,-6.512l-1.499,-1.611Zm7.173,6.618c0.518,0.555 0.518,0.708 0.234,1.201c-0.148,0.239 -0.199,0.378 -0.047,0.641c0.247,0.427 0.742,0.185 1.071,-0.005l4.092,-2.362c0.312,-0.181 0.913,-0.506 0.657,-0.95c-0.171,-0.295 -0.418,-0.306 -0.705,-0.272c-0.574,0.069 -0.771,-0.234 -1.135,-0.637l-8.461,-8.963l-3.632,2.097l0.298,1.01l5.854,6.306l-2.005,1.157l0.32,1.086l2.4,-1.385l1.059,1.076Z" style="fill:#cb0101;fill-rule:nonzero;"/><path d="M28.003,51.402c0.947,-0.371 1.484,0.217 1.911,0.956l1.433,2.482c0.465,0.805 0.805,1.508 -0.061,2.248l0.551,0.953c1.561,-0.901 2.386,-1.597 2.903,-2.486c0.798,-1.426 0.649,-2.785 -0.148,-4.166c-0.797,-1.38 -1.9,-2.19 -3.534,-2.211c-1.028,0.002 -2.044,0.369 -3.605,1.271l0.55,0.953Zm0.719,12.25c0.351,0.608 0.424,0.697 -0.047,1.21c-0.175,0.189 -0.238,0.423 -0.105,0.653c0.275,0.476 0.836,0.196 0.902,0.158l4.651,-2.685c0.066,-0.038 0.589,-0.384 0.314,-0.86c-0.133,-0.231 -0.366,-0.293 -0.618,-0.235c-0.679,0.151 -0.72,0.043 -1.071,-0.565l-6.034,-10.452l-4.339,2.505c-0.066,0.038 -0.589,0.384 -0.314,0.86c0.133,0.23 0.366,0.293 0.618,0.235c0.679,-0.151 0.72,-0.043 1.071,0.565l4.972,8.611Z" style="fill:#cb0101;fill-rule:nonzero;"/><path d="M42.477,55.711c0.351,0.608 0.424,0.697 -0.046,1.21c-0.176,0.189 -0.239,0.422 -0.106,0.652c0.275,0.477 0.837,0.197 0.902,0.159l4.651,-2.686c0.066,-0.037 0.589,-0.383 0.314,-0.86c-0.133,-0.23 -0.366,-0.293 -0.618,-0.235c-0.679,0.151 -0.72,0.043 -1.071,-0.565l-6.034,-10.452l-4.026,2.325l6.034,10.452Zm1.098,-14.57l-2.367,1.366l0.551,0.953c1.205,0.115 2.062,1.067 2.712,1.852c0.258,0.334 0.587,0.713 1.047,0.448c0.493,-0.285 0.306,-0.724 0.268,-0.79l-2.211,-3.829Zm-8.028,9.74c0.038,0.066 0.325,0.448 0.818,0.164c0.46,-0.266 0.295,-0.741 0.136,-1.131c-0.355,-0.956 -0.751,-2.174 -0.248,-3.275l-0.55,-0.953l-2.366,1.366l2.21,3.829Z" style="fill:#cb0101;fill-rule:nonzero;"/><path d="M58.377,44.274c0.746,1.519 0.648,2.715 -0.598,4.048l0.559,0.97c1.059,-0.633 2.446,-2.748 1.011,-5.536l-3.577,-6.195c-0.923,-2.206 0.499,-2.173 0.091,-2.879c-0.294,-0.51 -0.949,-0.088 -1.13,0.017l-1.873,1.081c-0.181,0.105 -0.874,0.461 -0.579,0.97c0.408,0.707 1.089,-0.541 2.538,1.361l3.558,6.163Zm-1.319,4.508c-1.441,0.35 -2.043,-1.033 -2.138,-1.198l-4.564,-7.904c-0.351,-0.608 -0.424,-0.698 0.047,-1.21c0.176,-0.189 0.238,-0.423 0.105,-0.653c-0.275,-0.476 -0.836,-0.196 -0.902,-0.158l-4.651,2.685c-0.065,0.038 -0.589,0.384 -0.314,0.86c0.133,0.231 0.366,0.293 0.618,0.235c0.68,-0.151 0.72,-0.043 1.071,0.565l4.498,7.79c0.474,0.822 1.032,1.332 2.985,1.3c1.495,-0.03 2.507,-0.593 3.805,-1.342l-0.56,-0.97Z" style="fill:#cb0101;fill-rule:nonzero;"/><path d="M63.89,43.348c0.351,0.608 0.425,0.697 -0.046,1.21c-0.176,0.189 -0.238,0.422 -0.105,0.652c0.275,0.477 0.836,0.197 0.902,0.159l4.651,-2.686c0.065,-0.037 0.589,-0.383 0.313,-0.86c-0.132,-0.23 -0.366,-0.293 -0.617,-0.235c-0.68,0.151 -0.72,0.043 -1.071,-0.565l-6.035,-10.452l-4.338,2.505c-0.066,0.038 -0.589,0.384 -0.314,0.861c0.133,0.23 0.366,0.292 0.617,0.235c0.68,-0.152 0.721,-0.044 1.072,0.564l4.971,8.612Zm-0.708,-12.234c0.992,-0.179 1.4,0.111 1.875,0.933l1.148,1.988c0.465,0.806 0.663,1.414 -0.177,2.009l0.56,0.97c1.043,-0.471 1.59,0.44 2.027,1.196l0.645,1.117c0.446,0.773 0.946,1.448 1.862,1.708c0.804,0.215 1.549,0.026 2.256,-0.382c0.707,-0.408 1.222,-0.881 1.515,-1.664c0.201,-0.488 0.392,-1.409 0.117,-1.886c-0.133,-0.23 -0.538,-0.325 -0.752,-0.201c-0.394,0.227 -0.168,0.733 -0.431,0.884c-0.214,0.124 -0.355,-0.233 -0.44,-0.381l-0.835,-1.447c-1.038,-1.723 -2.682,-1.343 -4.268,-0.713l-0.019,-0.032c1.449,-1.363 2.223,-2.905 1.099,-4.776c-0.737,-1.24 -1.818,-1.821 -3.232,-1.728c-1.261,0.093 -2.36,0.771 -3.428,1.388l-0.082,0.047l0.56,0.97Z" style="fill:#cb0101;fill-rule:nonzero;"/><path d="M69.604,26.792c0.133,0.23 0.367,0.293 0.618,0.235c0.68,-0.151 0.72,-0.043 1.071,0.565l4.972,8.611c0.351,0.608 0.424,0.697 -0.046,1.21c-0.176,0.189 -0.239,0.423 -0.106,0.653c0.275,0.476 0.837,0.196 0.902,0.158l4.339,-2.505l-7.097,-12.292l-4.339,2.504c-0.065,0.038 -0.589,0.384 -0.314,0.861Zm5.943,-2.839c1.579,-0.605 2.882,-0.284 4.078,0.801c0.224,0.199 0.401,0.316 0.681,0.154c0.493,-0.284 0.329,-0.606 0.281,-0.688l-1.926,-3.336l-3.665,2.116l0.551,0.953Zm6.547,11.339l3.779,-2.182l-1.897,-3.287c-0.038,-0.066 -0.274,-0.587 -0.799,-0.283c-0.296,0.17 -0.243,0.49 -0.216,0.803c0.316,1.571 -0.181,3.063 -1.418,3.996l0.551,0.953Zm-3.34,-5.785c0.794,-0.217 1.477,0.243 1.985,0.782c0.244,0.232 0.494,0.438 0.839,0.239c0.51,-0.294 0.086,-0.838 0.01,-0.97l-2.05,-3.549c-0.075,-0.132 -0.335,-0.771 -0.844,-0.477c-0.345,0.2 -0.292,0.519 -0.213,0.846c0.213,0.71 0.27,1.531 -0.316,2.111l0.589,1.018Z" style="fill:#cb0101;fill-rule:nonzero;"/><path d="M86.179,17.814c1.079,-0.447 1.669,0.461 2.03,1.085l4.041,7.001c0.361,0.625 0.853,1.59 -0.074,2.3l0.55,0.953c2.728,-1.575 4.187,-5.462 1.776,-9.22c-2.645,-4.126 -6.098,-4.718 -8.873,-3.072l0.55,0.953Zm-1.289,-0.526l-4.207,2.429c-0.329,0.19 -0.711,0.476 -0.465,0.903c0.237,0.411 0.578,0.28 0.973,0.205c0.369,-0.081 0.593,0.381 0.735,0.628l4.972,8.611c0.351,0.608 0.424,0.698 -0.047,1.21c-0.175,0.189 -0.238,0.423 -0.105,0.653c0.275,0.476 0.705,0.272 1.067,0.063l4.174,-2.41l-7.097,-12.292Z" style="fill:#cb0101;fill-rule:nonzero;"/></g></g></svg>