<?xml version="1.0" encoding="UTF-8" standalone="no"?><!DOCTYPE svg PUBLIC "-//W3C//DTD SVG 1.1//EN" "http://www.w3.org/Graphics/SVG/1.1/DTD/svg11.dtd"><svg width="100%" height="100%" viewBox="0 0 100 100" version="1.1" xmlns="http://www.w3.org/2000/svg" xmlns:xlink="http://www.w3.org/1999/xlink" xml:space="preserve" style="fill-rule:evenodd;clip-rule:evenodd;stroke-miterlimit:10;"><g><path d="M49.998,-0.002c-27.615,0 -50.001,22.384 -50.001,50.001c0,27.613 22.386,49.999 50.001,49.999c27.614,0 50,-22.386 50,-49.999c0,-27.617 -22.386,-50.001 -50,-50.001Z" style="fill:#48a1af;fill-rule:nonzero;"/><path d="M66.307,57.823c-1.573,-4.985 -3.754,-9.208 -8.386,-9.208l-15.945,0c-4.632,0 -6.813,4.223 -8.385,9.208c-1.572,4.99 -3.492,24.94 -3.492,24.94c0,5.086 3.753,9.209 8.383,9.209l22.934,0c4.63,0 8.383,-4.123 8.383,-9.209c0,0 -1.92,-19.95 -3.492,-24.94Z" style="fill:#595958;fill-rule:nonzero;"/><path d="M49.716,12.597c-9.332,0 -16.896,7.565 -16.896,16.895c0,9.336 7.564,16.9 16.896,16.9c9.332,0 16.897,-7.564 16.897,-16.9c0,-9.33 -7.565,-16.895 -16.897,-16.895Z" style="fill:#e9c29c;fill-rule:nonzero;"/><path d="M49.716,12.597c-9.332,0 -16.896,7.565 -16.896,16.895c0,0 6.966,-0.491 13.275,-3.343c6.543,-2.958 8.997,-7.022 8.997,-7.022l11.521,10.366c0,-9.331 -7.565,-16.896 -16.897,-16.896Z" style="fill:#a46434;fill-rule:nonzero;"/><path d="M44.651,29.557c-1.278,0 -2.315,1.096 -2.315,2.448c0,1.35 1.037,2.444 2.315,2.444c1.279,0 2.316,-1.094 2.316,-2.444c0,-1.352 -1.037,-2.448 -2.316,-2.448Z" style="fill:#343433;fill-rule:nonzero;"/><path d="M54.683,29.557c-1.279,0 -2.315,1.096 -2.315,2.448c0,1.35 1.036,2.444 2.315,2.444c1.279,0 2.317,-1.094 2.317,-2.444c0,-1.352 -1.038,-2.448 -2.317,-2.448Z" style="fill:#343433;fill-rule:nonzero;"/><path d="M55.405,30.099c-0.508,0 -0.923,0.437 -0.923,0.978c0,0.539 0.415,0.979 0.923,0.979c0.513,0 0.926,-0.44 0.926,-0.979c0,-0.541 -0.413,-0.978 -0.926,-0.978Z" style="fill:#fff;fill-rule:nonzero;"/><path d="M45.349,30.099c-0.511,0 -0.924,0.437 -0.924,0.978c0,0.539 0.413,0.979 0.924,0.979c0.512,0 0.928,-0.44 0.928,-0.979c-0.001,-0.541 -0.416,-0.978 -0.928,-0.978Z" style="fill:#fff;fill-rule:nonzero;"/><path d="M30.099,82.763c0,5.086 3.753,9.209 8.383,9.209l1.731,-9.181l-10.114,-0.028Z" style="fill:#e9c29c;fill-rule:nonzero;"/><path d="M41.976,48.615c-4.632,0 -6.813,4.223 -8.385,9.208c-1.572,4.99 -3.492,24.94 -3.492,24.94l10.115,0.028l4.593,-34.187l-2.831,0.011Z" style="fill:#686866;fill-rule:nonzero;"/><path d="M59.782,82.791l1.731,9.181c4.63,0 8.383,-4.123 8.383,-9.209l-10.114,0.028Z" style="fill:#e9c29c;fill-rule:nonzero;"/><path d="M66.404,57.823c-1.572,-4.985 -3.753,-9.208 -8.385,-9.208l-2.831,-0.011l4.594,34.187l10.114,-0.028c0,0 -1.92,-19.95 -3.492,-24.94Z" style="fill:#686866;fill-rule:nonzero;"/><path d="M65.774,24.233l-11.166,2.998c0,0 -3.594,2.263 -4.892,2.263c-1.298,0 -5.067,-2.32 -5.067,-2.32l-10.991,-2.941c-0.542,1.655 -0.839,3.422 -0.839,5.259c0,1.999 0.348,3.916 0.985,5.694c0.185,0.516 8.452,2.946 10.623,2.946c2.171,0 3.908,-3.033 5.234,-3.033c1.326,0 2.819,3.033 5.094,3.033c2.276,0 10.682,-2.418 10.865,-2.926c0.642,-1.785 0.993,-3.708 0.993,-5.714c0,-1.837 -0.297,-3.603 -0.839,-5.259Zm-21.103,10.955c-1.759,0 -3.184,-1.426 -3.184,-3.185c0,-1.758 1.425,-3.184 3.184,-3.184c1.759,0 3.184,1.426 3.184,3.184c0,1.759 -1.425,3.185 -3.184,3.185Zm10.013,0c-1.759,0 -3.184,-1.426 -3.184,-3.185c0,-1.758 1.425,-3.184 3.184,-3.184c1.758,0 3.184,1.426 3.184,3.184c0,1.759 -1.425,3.185 -3.184,3.185Z" style="fill:#686866;fill-rule:nonzero;"/><path d="M49.716,8.023c-8.829,0 -15.986,8.308 -15.986,17.926c0,0 1.883,1.242 15.893,1.242c14.01,0 16.08,-1.242 16.08,-1.242c0,-9.618 -7.158,-17.926 -15.987,-17.926Z" style="fill:#5b5b5b;fill-rule:nonzero;"/><path d="M49.716,8.023c-6.586,0 -11.925,8.308 -11.925,17.926c0,0 1.405,1.242 11.856,1.242c10.45,0 11.995,-1.242 11.995,-1.242c0,-9.618 -5.339,-17.926 -11.926,-17.926Z" style="fill:none;stroke:#494948;stroke-width:0.42px;"/><path d="M49.716,8.023c-2.41,0 -4.363,8.308 -4.363,17.926c0,0 0.514,1.242 4.338,1.242c3.823,0 4.389,-1.242 4.389,-1.242c-0.001,-9.618 -1.954,-17.926 -4.364,-17.926Z" style="fill:none;stroke:#494948;stroke-width:0.42px;"/><path d="M49.716,25.354c-10.106,0 -18.297,-5.357 -18.297,1.764c0,0 2.155,1.421 18.19,1.421c16.035,0 18.404,-1.421 18.404,-1.421c0,-7.016 -8.191,-1.764 -18.297,-1.764Z" style="fill:#5b5b5b;fill-rule:nonzero;"/></g></svg>