<?xml version="1.0" encoding="UTF-8" standalone="no"?><!DOCTYPE svg PUBLIC "-//W3C//DTD SVG 1.1//EN" "http://www.w3.org/Graphics/SVG/1.1/DTD/svg11.dtd"><svg width="100%" height="100%" viewBox="0 0 100 100" version="1.1" xmlns="http://www.w3.org/2000/svg" xmlns:xlink="http://www.w3.org/1999/xlink" xml:space="preserve" style="fill-rule:evenodd;clip-rule:evenodd;stroke-linejoin:round;stroke-miterlimit:1.41421;"><g><path d="M49.998,-0.002c-27.615,0 -50.001,22.384 -50.001,50.001c0,27.613 22.386,49.999 50.001,49.999c27.614,0 50,-22.386 50,-49.999c0,-27.617 -22.386,-50.001 -50,-50.001Z" style="fill:#48a1af;fill-rule:nonzero;"/><path d="M41.954,81.933l8.039,-21.984l-2.489,-5.341l4.981,0l-2.492,5.341l8.04,21.984l-5.051,6.976c10.243,-1.712 26.587,-10.803 34.516,-10.803l-2.775,-11.968c-0.852,-0.869 -1.854,-1.604 -3.011,-2.201c-5.819,-2.977 -11.836,-5.456 -17.921,-7.792c-0.455,-0.172 -0.996,-0.516 -1.182,-0.916c-0.5,-1.099 -0.841,-2.261 -1.202,-3.41c-0.219,-0.741 -0.413,-1.429 -1.221,-1.787c-0.219,-0.098 -0.413,-0.522 -0.413,-0.791c0.047,-2.673 -0.575,-5.478 1.406,-7.809c0.062,-0.072 0.087,-0.175 0.131,-0.261c1.068,-2.339 1.254,-5.017 2.747,-7.196c0.039,-0.05 0.05,-0.119 0.056,-0.183c0.174,-1.665 0.352,-3.319 0.496,-4.981c0.017,-0.205 -0.166,-0.572 -0.341,-0.635c-0.824,-0.289 -0.78,-0.952 -0.774,-1.613c0,-3.246 0,-3.718 -0.006,-6.965c0,-1.887 -0.555,-3.563 -1.981,-4.848c-1.623,-1.457 -3.297,-2.869 -4.962,-4.279c-0.802,-0.683 -0.874,-1.207 -0.122,-1.956c0.336,-0.33 0.758,-0.569 1.149,-0.847c-0.086,-0.13 -0.169,-0.255 -0.253,-0.383c-0.507,0 -1.015,-0.066 -1.504,0.009c-1.845,0.297 -3.699,0.558 -5.511,0.985c-3.46,0.816 -6.821,1.898 -9.629,4.218c-1.92,1.582 -3.455,3.424 -3.649,6.036c-0.094,1.368 -0.083,2.741 -0.094,4.109c-0.014,2.231 0.019,1.688 -0.031,3.913c-0.011,0.361 -0.214,0.96 -0.469,1.041c-0.899,0.291 -0.927,0.868 -0.805,1.62c0.089,0.516 0.025,1.058 0.136,1.563c0.311,1.393 0.644,2.786 1.046,4.159c0.295,1.022 0.877,1.987 1.041,3.028c0.319,2.076 1.093,3.879 2.495,5.447c0.227,0.261 0.405,0.694 0.377,1.041c-0.111,1.593 -0.272,3.191 -0.488,4.781c-0.047,0.308 -0.372,0.769 -0.636,0.827c-1.063,0.219 -1.223,1.038 -1.479,1.868c-0.333,1.09 -0.688,2.178 -1.11,3.235c-0.133,0.331 -0.463,0.672 -0.788,0.816c-1.887,0.822 -3.81,1.579 -5.711,2.376c-2.023,0.852 -4.068,1.665 -6.041,2.603c-2.037,0.976 -4.013,2.07 -6.008,3.138c-1.174,0.63 -2.27,1.329 -3.188,2.187l-2.775,11.824c13.517,0 20.576,9.771 34.64,10.975l-5.184,-7.151Zm21.218,-11.638l11.68,0l0,2.081l-11.68,0l0,-2.081Z" style="fill:#595958;fill-rule:nonzero;"/></g></svg>