<?xml version="1.0" encoding="UTF-8" standalone="no"?><!DOCTYPE svg PUBLIC "-//W3C//DTD SVG 1.1//EN" "http://www.w3.org/Graphics/SVG/1.1/DTD/svg11.dtd"><svg width="100%" height="100%" viewBox="0 0 110 110" version="1.1" xmlns="http://www.w3.org/2000/svg" xmlns:xlink="http://www.w3.org/1999/xlink" xml:space="preserve" style="fill-rule:evenodd;clip-rule:evenodd;stroke-linejoin:round;stroke-miterlimit:1.41421;"><path d="M44.789,19.961l0.159,0.002l0.159,0.002l0.158,0.004l0.159,0.005l0.158,0.005l0.158,0.007l0.157,0.007l0.158,0.009l0.157,0.01l0.157,0.01l0.156,0.012l0.157,0.012l0.156,0.014l0.156,0.014l0.155,0.016l0.156,0.016l0.155,0.018l0.155,0.018l0.154,0.02l0.154,0.02l0.154,0.021l0.154,0.023l0.154,0.023l0.153,0.024l0.153,0.025l0.152,0.026l0.152,0.027l0.152,0.028l0.152,0.029l0.151,0.03l0.151,0.031l0.151,0.031l0.15,0.033l0.15,0.033l0.15,0.035l0.149,0.035l0.149,0.036l0.149,0.037l0.148,0.038l0.148,0.039l0.148,0.04l0.147,0.041l0.147,0.042l0.146,0.042l0.146,0.043l0.146,0.045l0.146,0.045l0.145,0.046l0.144,0.047l0.145,0.048l0.143,0.048l0.144,0.05l0.143,0.05l0.143,0.051l0.142,0.052l0.142,0.053l0.141,0.054l0.142,0.054l0.14,0.056l0.14,0.056l0.14,0.057l0.14,0.058l0.139,0.059l0.138,0.059l0.138,0.06l0.138,0.062l0.137,0.062l0.137,0.062l0.137,0.064l0.135,0.064l0.136,0.065l0.135,0.066l0.135,0.067l0.134,0.068l0.133,0.068l0.133,0.069l0.133,0.07l0.132,0.071l0.132,0.071l0.131,0.072l0.131,0.073l0.13,0.074l0.13,0.075l0.13,0.075l0.128,0.076l0.129,0.077l0.128,0.077l0.127,0.078l0.127,0.079l0.126,0.08l0.126,0.081l0.125,0.081l0.125,0.082l0.124,0.082l0.124,0.084l0.123,0.084l0.123,0.084l0.122,0.086l0.122,0.086l0.121,0.087l0.12,0.088l0.12,0.088l0.12,0.089l0.119,0.09l0.118,0.09l0.118,0.091l0.117,0.092l0.117,0.092l0.116,0.094l0.115,0.093l0.115,0.095l0.115,0.095l0.114,0.096l0.113,0.096l0.112,0.097l0.113,0.098l0.111,0.099l0.111,0.099l0.11,0.099l0.11,0.101l0.109,0.101l0.108,0.102l0.108,0.102l0.108,0.103l0.106,0.103l0.106,0.105l0.106,0.104l0.105,0.106l0.104,0.106l0.103,0.107l0.103,0.107l0.103,0.108l0.101,0.108l0.101,0.109l0.101,0.11l0.099,0.11l0.099,0.111l0.099,0.112l0.098,0.112l0.097,0.112l0.096,0.114l0.096,0.113l0.095,0.115l0.095,0.115l0.094,0.115l0.093,0.116l0.092,0.117l0.092,0.117l0.091,0.118l0.09,0.118l0.09,0.119l0.089,0.12l0.088,0.12l0.088,0.12l0.087,0.121l0.086,0.122l0.086,0.122l0.084,0.123l0.085,0.123l0.083,0.124l0.082,0.124l0.082,0.125l0.082,0.125l0.08,0.126l0.08,0.126l0.079,0.127l0.078,0.127l0.077,0.128l0.077,0.129l0.076,0.128l0.075,0.13l0.075,0.13l0.074,0.13l0.073,0.131l0.072,0.131l0.071,0.132l0.071,0.132l0.07,0.133l0.069,0.133l0.068,0.134l0.068,0.134l0.067,0.134l0.066,0.135l0.065,0.136l0.064,0.136l0.064,0.136l0.063,0.137l0.062,0.137l0.061,0.138l0.06,0.138l0.06,0.138l0.058,0.139l0.058,0.14l0.057,0.14l0.056,0.14l0.056,0.141l0.054,0.141l0.054,0.141l0.053,0.142l0.052,0.142l0.051,0.143l0.051,0.143l0.049,0.144l0.049,0.144l0.047,0.144l0.047,0.144l0.046,0.146l0.045,0.145l0.045,0.146l0.043,0.146l0.043,0.146l0.041,0.147l0.041,0.148l0.04,0.147l0.039,0.148l0.038,0.148l0.037,0.149l0.036,0.149l0.035,0.149l0.035,0.15l0.033,0.15l0.033,0.15l0.032,0.151l0.03,0.151l0.03,0.151l0.029,0.152l0.028,0.152l0.027,0.152l0.026,0.153l0.025,0.152l0.024,0.154l0.024,0.153l0.022,0.154l0.021,0.154l0.021,0.154l0.019,0.155l0.018,0.154l0.018,0.155l0.016,0.156l0.016,0.156l0.014,0.155l0.014,0.157l0.012,0.156l0.012,0.157l0.011,0.157l0.009,0.157l0.009,0.157l0.007,0.158l0.007,0.157l0.006,0.159l0.004,0.158l0.004,0.158l0.002,0.159l0.002,0.159l0,0.159l0,0.152l-0.002,0.152l-0.002,0.152l-0.003,0.152l-0.004,0.151l-0.005,0.152l-0.007,0.151l-0.006,0.151l-0.008,0.151l-0.009,0.151l-0.01,0.151l-0.01,0.151l-0.012,0.151l-0.012,0.15l-0.014,0.15l-0.014,0.151l-0.015,0.15l-0.016,0.149l-0.017,0.15l-0.018,0.15l-0.019,0.149l-0.02,0.149l-0.02,0.149l-0.022,0.149l-0.022,0.149l-0.024,0.148l-0.024,0.148l-0.025,0.148l-0.026,0.148l-0.027,0.148l-0.027,0.147l-0.029,0.148l-0.03,0.147l-0.03,0.146l-0.031,0.147l-0.032,0.146l-0.033,0.146l-0.034,0.146l-0.035,0.146l-0.036,0.145l-0.036,0.145l-0.037,0.145l-0.039,0.145l-0.039,0.144l-0.04,0.144l-0.041,0.144l-0.041,0.144l-0.043,0.143l-0.043,0.143l-0.045,0.143l-0.045,0.142l-0.046,0.142l-0.046,0.142l-0.048,0.142l-0.049,0.141l-0.049,0.141l-0.05,0.14l-0.051,0.141l-0.052,0.14l-0.053,0.139l-0.053,0.14l-0.055,0.139l-0.055,0.138l-0.056,0.139l-0.057,0.138l-0.058,0.137l-0.058,0.138l-0.06,0.137l-0.06,0.136l-0.061,0.137l-0.062,0.136l-0.063,0.135l-0.063,0.135l-0.064,0.135l-0.066,0.134l-0.066,0.134l-0.066,0.134l-0.068,0.133l-0.068,0.133l-0.069,0.133l-0.071,0.132l-0.07,0.131l-0.072,0.132l-0.072,0.13l-0.074,0.131l-0.074,0.13l-0.074,0.129l-0.076,0.13l-0.076,0.128l-0.078,0.128l-0.078,0.128l-0.078,0.128l-0.08,0.127l-0.08,0.126l-0.082,0.126l-0.081,0.126l-0.083,0.125l-0.084,0.124l-0.084,0.125l-0.085,0.123l-0.086,0.123l-0.086,0.123l-0.088,0.122l-0.088,0.122l-0.089,0.121l-0.089,0.121l-0.091,0.12l-0.091,0.12l-0.092,0.119l-0.093,0.119l-0.093,0.118l-0.095,0.118l-0.095,0.117l-0.059,0.073l5.956,5.957l0.038,-0.042l0.189,-0.171l0.206,-0.153l0.219,-0.131l0.232,-0.11l0.241,-0.086l0.248,-0.062l0.253,-0.038l0.255,-0.012l0.256,0.012l0.253,0.038l0.248,0.062l0.241,0.086l0.232,0.11l0.219,0.131l0.206,0.153l0.189,0.171l17.777,17.778l-7.453,7.453l-17.777,-17.777l-0.172,-0.19l-0.152,-0.205l-0.132,-0.22l-0.109,-0.231l-0.087,-0.241l-0.062,-0.248l-0.037,-0.253l-0.013,-0.256l0.013,-0.255l0.037,-0.253l0.062,-0.249l0.087,-0.241l0.109,-0.231l0.132,-0.219l0.152,-0.206l0.172,-0.189l0.041,-0.038l-5.987,-5.987l-0.106,0.083l-0.119,0.093l-0.119,0.092l-0.12,0.091l-0.12,0.091l-0.121,0.089l-0.121,0.089l-0.122,0.088l-0.122,0.088l-0.123,0.086l-0.123,0.086l-0.123,0.085l-0.125,0.084l-0.124,0.084l-0.125,0.083l-0.126,0.082l-0.126,0.081l-0.126,0.08l-0.127,0.08l-0.128,0.078l-0.128,0.078l-0.128,0.078l-0.129,0.076l-0.129,0.076l-0.129,0.074l-0.13,0.074l-0.131,0.074l-0.131,0.072l-0.131,0.072l-0.131,0.071l-0.132,0.07l-0.133,0.069l-0.133,0.068l-0.133,0.068l-0.134,0.067l-0.134,0.065l-0.134,0.066l-0.135,0.064l-0.135,0.063l-0.136,0.063l-0.135,0.062l-0.137,0.061l-0.136,0.06l-0.137,0.06l-0.138,0.058l-0.137,0.058l-0.138,0.057l-0.139,0.056l-0.138,0.055l-0.139,0.055l-0.14,0.053l-0.139,0.053l-0.14,0.052l-0.141,0.051l-0.14,0.05l-0.141,0.049l-0.142,0.049l-0.141,0.048l-0.142,0.046l-0.142,0.046l-0.142,0.046l-0.143,0.044l-0.143,0.043l-0.144,0.043l-0.143,0.041l-0.144,0.041l-0.144,0.04l-0.144,0.039l-0.145,0.039l-0.145,0.037l-0.145,0.036l-0.145,0.036l-0.146,0.035l-0.146,0.034l-0.146,0.033l-0.146,0.032l-0.147,0.031l-0.147,0.031l-0.147,0.029l-0.147,0.029l-0.147,0.027l-0.148,0.027l-0.148,0.026l-0.148,0.025l-0.148,0.024l-0.148,0.024l-0.149,0.022l-0.149,0.022l-0.149,0.02l-0.149,0.02l-0.149,0.019l-0.15,0.018l-0.15,0.017l-0.149,0.016l-0.15,0.015l-0.151,0.014l-0.15,0.014l-0.15,0.012l-0.151,0.012l-0.151,0.01l-0.151,0.01l-0.151,0.009l-0.151,0.008l-0.151,0.007l-0.151,0.006l-0.152,0.005l-0.152,0.004l-0.151,0.003l-0.152,0.002l-0.152,0.002l-0.152,0l-0.159,0l-0.159,-0.002l-0.159,-0.002l-0.158,-0.004l-0.159,-0.004l-0.158,-0.006l-0.157,-0.007l-0.158,-0.007l-0.157,-0.009l-0.158,-0.009l-0.156,-0.011l-0.157,-0.012l-0.157,-0.012l-0.156,-0.014l-0.156,-0.014l-0.155,-0.016l-0.156,-0.016l-0.155,-0.018l-0.154,-0.018l-0.155,-0.019l-0.154,-0.021l-0.154,-0.021l-0.154,-0.022l-0.153,-0.024l-0.154,-0.024l-0.152,-0.025l-0.153,-0.026l-0.152,-0.027l-0.152,-0.028l-0.152,-0.029l-0.151,-0.03l-0.151,-0.03l-0.151,-0.032l-0.15,-0.033l-0.15,-0.033l-0.15,-0.035l-0.149,-0.035l-0.149,-0.036l-0.149,-0.037l-0.148,-0.038l-0.148,-0.039l-0.148,-0.04l-0.147,-0.041l-0.147,-0.041l-0.146,-0.043l-0.146,-0.043l-0.146,-0.045l-0.145,-0.045l-0.146,-0.046l-0.144,-0.047l-0.144,-0.047l-0.144,-0.049l-0.144,-0.049l-0.143,-0.051l-0.143,-0.051l-0.142,-0.052l-0.142,-0.053l-0.141,-0.054l-0.141,-0.054l-0.141,-0.056l-0.14,-0.056l-0.14,-0.057l-0.14,-0.058l-0.139,-0.058l-0.138,-0.06l-0.138,-0.06l-0.138,-0.061l-0.137,-0.062l-0.137,-0.063l-0.136,-0.064l-0.136,-0.064l-0.136,-0.065l-0.135,-0.066l-0.134,-0.067l-0.135,-0.068l-0.133,-0.068l-0.133,-0.069l-0.133,-0.07l-0.132,-0.071l-0.132,-0.071l-0.131,-0.072l-0.131,-0.073l-0.13,-0.074l-0.13,-0.074l-0.13,-0.076l-0.128,-0.076l-0.129,-0.076l-0.128,-0.078l-0.127,-0.078l-0.127,-0.079l-0.126,-0.08l-0.126,-0.08l-0.125,-0.082l-0.125,-0.081l-0.124,-0.083l-0.124,-0.083l-0.123,-0.085l-0.123,-0.084l-0.122,-0.086l-0.122,-0.086l-0.121,-0.087l-0.12,-0.088l-0.12,-0.088l-0.12,-0.089l-0.119,-0.09l-0.118,-0.09l-0.118,-0.091l-0.117,-0.092l-0.117,-0.092l-0.116,-0.093l-0.115,-0.094l-0.115,-0.095l-0.115,-0.095l-0.113,-0.096l-0.114,-0.096l-0.112,-0.097l-0.112,-0.098l-0.112,-0.098l-0.111,-0.1l-0.11,-0.099l-0.11,-0.101l-0.109,-0.101l-0.108,-0.101l-0.108,-0.103l-0.108,-0.103l-0.106,-0.103l-0.106,-0.104l-0.106,-0.105l-0.104,-0.106l-0.105,-0.106l-0.103,-0.106l-0.103,-0.108l-0.103,-0.108l-0.101,-0.108l-0.101,-0.109l-0.101,-0.11l-0.099,-0.11l-0.099,-0.111l-0.099,-0.111l-0.098,-0.113l-0.097,-0.112l-0.096,-0.113l-0.096,-0.114l-0.095,-0.115l-0.095,-0.115l-0.093,-0.115l-0.094,-0.116l-0.092,-0.117l-0.092,-0.117l-0.091,-0.118l-0.09,-0.118l-0.09,-0.119l-0.089,-0.12l-0.088,-0.12l-0.088,-0.12l-0.087,-0.121l-0.086,-0.122l-0.086,-0.122l-0.084,-0.123l-0.084,-0.123l-0.084,-0.124l-0.082,-0.124l-0.082,-0.125l-0.082,-0.125l-0.08,-0.126l-0.08,-0.126l-0.079,-0.127l-0.078,-0.127l-0.077,-0.128l-0.077,-0.129l-0.076,-0.128l-0.075,-0.13l-0.075,-0.13l-0.074,-0.13l-0.073,-0.131l-0.072,-0.131l-0.071,-0.132l-0.071,-0.132l-0.07,-0.133l-0.069,-0.133l-0.068,-0.133l-0.068,-0.134l-0.067,-0.135l-0.066,-0.135l-0.065,-0.136l-0.064,-0.135l-0.064,-0.137l-0.062,-0.137l-0.062,-0.137l-0.062,-0.138l-0.06,-0.138l-0.059,-0.138l-0.059,-0.139l-0.058,-0.14l-0.057,-0.139l-0.056,-0.141l-0.056,-0.14l-0.054,-0.142l-0.054,-0.141l-0.053,-0.142l-0.052,-0.142l-0.051,-0.143l-0.05,-0.143l-0.05,-0.143l-0.049,-0.144l-0.047,-0.145l-0.047,-0.144l-0.046,-0.145l-0.045,-0.146l-0.045,-0.146l-0.043,-0.146l-0.042,-0.146l-0.042,-0.147l-0.041,-0.147l-0.04,-0.148l-0.039,-0.148l-0.038,-0.148l-0.037,-0.149l-0.036,-0.149l-0.035,-0.149l-0.035,-0.15l-0.033,-0.15l-0.033,-0.15l-0.031,-0.151l-0.031,-0.151l-0.03,-0.151l-0.029,-0.152l-0.028,-0.152l-0.027,-0.152l-0.026,-0.152l-0.025,-0.153l-0.024,-0.153l-0.023,-0.154l-0.023,-0.154l-0.021,-0.154l-0.02,-0.154l-0.02,-0.154l-0.018,-0.155l-0.018,-0.155l-0.016,-0.156l-0.016,-0.155l-0.014,-0.156l-0.014,-0.156l-0.012,-0.157l-0.012,-0.156l-0.01,-0.157l-0.01,-0.157l-0.009,-0.158l-0.007,-0.157l-0.007,-0.158l-0.005,-0.158l-0.005,-0.159l-0.004,-0.158l-0.002,-0.159l-0.002,-0.159l0,-0.159l0,-0.159l0.002,-0.159l0.002,-0.159l0.004,-0.158l0.005,-0.158l0.005,-0.159l0.007,-0.157l0.007,-0.158l0.009,-0.157l0.01,-0.157l0.01,-0.157l0.012,-0.157l0.012,-0.156l0.014,-0.157l0.014,-0.155l0.016,-0.156l0.016,-0.156l0.018,-0.155l0.018,-0.154l0.02,-0.155l0.02,-0.154l0.021,-0.154l0.023,-0.154l0.023,-0.153l0.024,-0.154l0.025,-0.152l0.026,-0.153l0.027,-0.152l0.028,-0.152l0.029,-0.152l0.03,-0.151l0.031,-0.151l0.031,-0.151l0.033,-0.15l0.033,-0.15l0.035,-0.15l0.035,-0.149l0.036,-0.149l0.037,-0.149l0.038,-0.148l0.039,-0.148l0.04,-0.147l0.041,-0.148l0.042,-0.147l0.042,-0.146l0.043,-0.146l0.045,-0.146l0.045,-0.145l0.046,-0.146l0.047,-0.144l0.047,-0.144l0.049,-0.144l0.05,-0.144l0.05,-0.143l0.051,-0.143l0.052,-0.142l0.053,-0.142l0.054,-0.141l0.054,-0.141l0.056,-0.141l0.056,-0.14l0.057,-0.14l0.058,-0.14l0.059,-0.139l0.059,-0.138l0.06,-0.138l0.062,-0.138l0.062,-0.137l0.062,-0.137l0.064,-0.136l0.064,-0.136l0.065,-0.136l0.066,-0.135l0.067,-0.134l0.068,-0.134l0.068,-0.134l0.069,-0.133l0.07,-0.133l0.071,-0.132l0.071,-0.132l0.072,-0.131l0.073,-0.131l0.074,-0.13l0.075,-0.13l0.075,-0.13l0.076,-0.128l0.077,-0.129l0.077,-0.128l0.078,-0.127l0.079,-0.127l0.08,-0.126l0.081,-0.126l0.081,-0.125l0.082,-0.125l0.082,-0.124l0.084,-0.124l0.084,-0.123l0.084,-0.123l0.086,-0.122l0.086,-0.122l0.087,-0.121l0.088,-0.12l0.088,-0.12l0.089,-0.12l0.09,-0.119l0.09,-0.118l0.091,-0.118l0.092,-0.117l0.092,-0.117l0.094,-0.116l0.093,-0.115l0.095,-0.115l0.095,-0.115l0.096,-0.113l0.096,-0.114l0.097,-0.112l0.098,-0.112l0.099,-0.112l0.099,-0.111l0.099,-0.11l0.101,-0.11l0.101,-0.109l0.102,-0.108l0.102,-0.108l0.103,-0.107l0.103,-0.107l0.105,-0.106l0.104,-0.106l0.106,-0.104l0.106,-0.105l0.106,-0.103l0.108,-0.103l0.108,-0.102l0.108,-0.102l0.109,-0.101l0.11,-0.101l0.11,-0.099l0.111,-0.099l0.112,-0.099l0.112,-0.098l0.112,-0.097l0.114,-0.096l0.113,-0.096l0.115,-0.095l0.115,-0.095l0.115,-0.093l0.116,-0.094l0.117,-0.092l0.117,-0.092l0.118,-0.091l0.118,-0.09l0.119,-0.09l0.12,-0.089l0.12,-0.088l0.12,-0.088l0.121,-0.087l0.122,-0.086l0.122,-0.086l0.123,-0.084l0.123,-0.084l0.124,-0.084l0.124,-0.082l0.125,-0.082l0.125,-0.081l0.126,-0.081l0.126,-0.08l0.127,-0.079l0.127,-0.078l0.128,-0.077l0.129,-0.077l0.128,-0.076l0.13,-0.075l0.13,-0.075l0.13,-0.074l0.131,-0.073l0.131,-0.072l0.132,-0.071l0.132,-0.071l0.133,-0.07l0.133,-0.069l0.134,-0.068l0.134,-0.068l0.134,-0.067l0.135,-0.066l0.136,-0.065l0.136,-0.064l0.136,-0.064l0.137,-0.062l0.137,-0.062l0.138,-0.062l0.138,-0.06l0.138,-0.059l0.139,-0.059l0.14,-0.058l0.14,-0.057l0.14,-0.056l0.141,-0.056l0.141,-0.054l0.141,-0.054l0.142,-0.053l0.142,-0.052l0.143,-0.051l0.143,-0.05l0.144,-0.05l0.144,-0.048l0.144,-0.048l0.144,-0.047l0.145,-0.046l0.146,-0.045l0.146,-0.045l0.146,-0.043l0.146,-0.042l0.147,-0.042l0.148,-0.041l0.147,-0.04l0.148,-0.039l0.148,-0.038l0.149,-0.037l0.149,-0.036l0.149,-0.035l0.15,-0.035l0.15,-0.033l0.15,-0.033l0.151,-0.031l0.151,-0.031l0.151,-0.03l0.152,-0.029l0.152,-0.028l0.152,-0.027l0.153,-0.026l0.152,-0.025l0.154,-0.024l0.153,-0.023l0.154,-0.023l0.154,-0.021l0.154,-0.02l0.155,-0.02l0.154,-0.018l0.155,-0.018l0.156,-0.016l0.155,-0.016l0.156,-0.014l0.157,-0.014l0.156,-0.012l0.157,-0.012l0.156,-0.01l0.158,-0.01l0.157,-0.009l0.158,-0.007l0.157,-0.007l0.158,-0.005l0.159,-0.005l0.158,-0.004l0.159,-0.002l0.159,-0.002l0.159,0l0.159,0Zm-0.285,5.215l-0.125,0.001l-0.125,0.002l-0.125,0.003l-0.125,0.004l-0.125,0.004l-0.124,0.005l-0.124,0.006l-0.124,0.007l-0.124,0.007l-0.124,0.009l-0.123,0.009l-0.123,0.01l-0.123,0.01l-0.123,0.012l-0.123,0.012l-0.122,0.013l-0.122,0.014l-0.122,0.014l-0.121,0.016l-0.122,0.016l-0.121,0.016l-0.121,0.018l-0.121,0.018l-0.12,0.019l-0.12,0.02l-0.12,0.02l-0.12,0.022l-0.12,0.022l-0.119,0.022l-0.119,0.024l-0.119,0.024l-0.118,0.025l-0.118,0.026l-0.118,0.026l-0.118,0.027l-0.118,0.028l-0.117,0.028l-0.117,0.029l-0.116,0.03l-0.117,0.031l-0.116,0.031l-0.116,0.032l-0.115,0.033l-0.116,0.034l-0.115,0.034l-0.115,0.035l-0.114,0.035l-0.114,0.036l-0.114,0.037l-0.114,0.038l-0.113,0.038l-0.113,0.039l-0.113,0.04l-0.112,0.04l-0.112,0.041l-0.112,0.042l-0.112,0.042l-0.111,0.043l-0.111,0.044l-0.11,0.044l-0.11,0.045l-0.11,0.046l-0.11,0.046l-0.109,0.047l-0.109,0.048l-0.109,0.048l-0.108,0.049l-0.108,0.049l-0.108,0.05l-0.107,0.051l-0.107,0.052l-0.106,0.052l-0.107,0.052l-0.106,0.054l-0.105,0.054l-0.105,0.054l-0.105,0.056l-0.104,0.055l-0.105,0.057l-0.103,0.057l-0.104,0.058l-0.103,0.058l-0.102,0.059l-0.103,0.059l-0.101,0.06l-0.102,0.061l-0.101,0.061l-0.101,0.062l-0.1,0.063l-0.1,0.063l-0.1,0.063l-0.099,0.065l-0.098,0.064l-0.099,0.066l-0.098,0.066l-0.097,0.066l-0.097,0.067l-0.097,0.068l-0.096,0.068l-0.096,0.069l-0.096,0.07l-0.095,0.07l-0.094,0.07l-0.095,0.071l-0.093,0.072l-0.094,0.072l-0.092,0.073l-0.093,0.073l-0.092,0.074l-0.092,0.074l-0.091,0.075l-0.09,0.075l-0.09,0.076l-0.09,0.077l-0.09,0.077l-0.088,0.077l-0.089,0.078l-0.088,0.079l-0.087,0.079l-0.087,0.079l-0.087,0.081l-0.086,0.08l-0.085,0.081l-0.085,0.082l-0.085,0.082l-0.084,0.083l-0.083,0.083l-0.083,0.083l-0.083,0.084l-0.082,0.085l-0.082,0.085l-0.081,0.085l-0.081,0.086l-0.08,0.087l-0.079,0.087l-0.079,0.087l-0.079,0.088l-0.078,0.089l-0.077,0.089l-0.077,0.089l-0.077,0.09l-0.076,0.09l-0.075,0.09l-0.075,0.092l-0.074,0.091l-0.074,0.092l-0.073,0.093l-0.073,0.092l-0.072,0.094l-0.072,0.093l-0.071,0.095l-0.07,0.094l-0.07,0.095l-0.07,0.096l-0.069,0.096l-0.068,0.096l-0.068,0.097l-0.067,0.097l-0.066,0.097l-0.066,0.098l-0.066,0.099l-0.064,0.098l-0.065,0.099l-0.063,0.1l-0.063,0.1l-0.063,0.1l-0.062,0.101l-0.061,0.101l-0.061,0.102l-0.06,0.101l-0.059,0.103l-0.059,0.102l-0.059,0.103l-0.057,0.104l-0.057,0.103l-0.057,0.105l-0.056,0.104l-0.055,0.105l-0.054,0.105l-0.054,0.106l-0.054,0.105l-0.052,0.107l-0.052,0.106l-0.052,0.107l-0.051,0.107l-0.05,0.108l-0.049,0.108l-0.049,0.108l-0.048,0.109l-0.048,0.109l-0.047,0.109l-0.046,0.11l-0.046,0.11l-0.045,0.11l-0.044,0.11l-0.044,0.111l-0.043,0.111l-0.042,0.112l-0.042,0.112l-0.041,0.112l-0.04,0.112l-0.04,0.113l-0.039,0.113l-0.038,0.113l-0.038,0.114l-0.037,0.114l-0.036,0.114l-0.035,0.114l-0.035,0.115l-0.034,0.115l-0.034,0.116l-0.033,0.115l-0.032,0.116l-0.031,0.116l-0.031,0.117l-0.03,0.116l-0.029,0.117l-0.028,0.117l-0.028,0.118l-0.027,0.118l-0.026,0.118l-0.026,0.118l-0.025,0.118l-0.024,0.119l-0.024,0.119l-0.022,0.119l-0.022,0.12l-0.022,0.12l-0.02,0.12l-0.02,0.12l-0.019,0.12l-0.018,0.121l-0.018,0.121l-0.016,0.121l-0.016,0.122l-0.016,0.121l-0.014,0.122l-0.014,0.122l-0.013,0.122l-0.012,0.123l-0.012,0.123l-0.01,0.123l-0.01,0.123l-0.009,0.123l-0.009,0.124l-0.007,0.124l-0.007,0.124l-0.006,0.124l-0.005,0.124l-0.005,0.125l-0.003,0.125l-0.003,0.125l-0.002,0.125l-0.001,0.125l-0.001,0.126l0.001,0.126l0.001,0.125l0.002,0.125l0.003,0.125l0.003,0.125l0.005,0.125l0.005,0.124l0.006,0.124l0.007,0.124l0.007,0.124l0.009,0.124l0.009,0.123l0.01,0.123l0.01,0.123l0.012,0.123l0.012,0.123l0.013,0.122l0.014,0.122l0.014,0.122l0.016,0.122l0.016,0.121l0.016,0.121l0.018,0.121l0.018,0.121l0.019,0.12l0.02,0.12l0.02,0.12l0.022,0.12l0.022,0.12l0.022,0.119l0.024,0.119l0.024,0.119l0.025,0.118l0.026,0.119l0.026,0.118l0.027,0.117l0.028,0.118l0.028,0.117l0.029,0.117l0.03,0.117l0.031,0.116l0.031,0.116l0.032,0.116l0.033,0.116l0.034,0.115l0.034,0.115l0.035,0.115l0.035,0.114l0.036,0.114l0.037,0.114l0.038,0.114l0.038,0.113l0.039,0.113l0.04,0.113l0.04,0.112l0.041,0.112l0.042,0.112l0.042,0.112l0.043,0.111l0.044,0.111l0.044,0.11l0.045,0.111l0.046,0.109l0.046,0.11l0.047,0.109l0.047,0.109l0.049,0.109l0.049,0.108l0.049,0.108l0.05,0.108l0.051,0.107l0.052,0.107l0.052,0.107l0.052,0.106l0.054,0.106l0.054,0.105l0.054,0.105l0.055,0.105l0.056,0.105l0.057,0.104l0.057,0.103l0.057,0.104l0.059,0.103l0.059,0.102l0.059,0.103l0.06,0.102l0.061,0.101l0.061,0.101l0.062,0.101l0.063,0.1l0.063,0.1l0.063,0.1l0.065,0.099l0.064,0.099l0.066,0.098l0.066,0.098l0.066,0.097l0.067,0.098l0.068,0.096l0.068,0.097l0.069,0.095l0.07,0.096l0.07,0.095l0.07,0.095l0.071,0.094l0.072,0.093l0.072,0.094l0.073,0.093l0.073,0.092l0.074,0.092l0.074,0.092l0.075,0.091l0.075,0.09l0.076,0.091l0.077,0.089l0.077,0.09l0.077,0.089l0.078,0.088l0.079,0.088l0.079,0.087l0.079,0.087l0.08,0.087l0.081,0.086l0.081,0.085l0.082,0.085l0.082,0.085l0.082,0.084l0.084,0.084l0.083,0.083l0.084,0.082l0.085,0.082l0.085,0.082l0.085,0.081l0.086,0.081l0.087,0.08l0.087,0.079l0.087,0.079l0.088,0.079l0.089,0.078l0.088,0.078l0.09,0.077l0.089,0.076l0.091,0.076l0.09,0.075l0.091,0.075l0.092,0.075l0.092,0.073l0.093,0.074l0.092,0.072l0.094,0.072l0.093,0.072l0.095,0.071l0.094,0.071l0.095,0.07l0.096,0.069l0.096,0.069l0.096,0.068l0.097,0.068l0.097,0.067l0.097,0.066l0.098,0.066l0.099,0.066l0.098,0.065l0.099,0.064l0.1,0.064l0.1,0.063l0.1,0.062l0.101,0.062l0.101,0.061l0.102,0.061l0.101,0.06l0.103,0.06l0.102,0.058l0.103,0.059l0.104,0.057l0.103,0.057l0.105,0.057l0.104,0.056l0.105,0.055l0.105,0.054l0.106,0.054l0.105,0.054l0.107,0.052l0.106,0.053l0.107,0.051l0.107,0.051l0.108,0.05l0.108,0.05l0.108,0.048l0.109,0.049l0.109,0.047l0.109,0.047l0.11,0.046l0.11,0.046l0.11,0.045l0.11,0.044l0.111,0.044l0.111,0.043l0.112,0.042l0.112,0.042l0.112,0.041l0.112,0.04l0.113,0.04l0.113,0.039l0.113,0.038l0.114,0.038l0.114,0.037l0.114,0.036l0.114,0.036l0.115,0.034l0.115,0.034l0.116,0.034l0.115,0.033l0.116,0.032l0.116,0.031l0.117,0.031l0.116,0.03l0.117,0.029l0.117,0.028l0.118,0.028l0.118,0.027l0.118,0.027l0.118,0.025l0.118,0.025l0.119,0.024l0.119,0.024l0.119,0.023l0.12,0.021l0.12,0.022l0.12,0.02l0.12,0.02l0.12,0.019l0.121,0.018l0.121,0.018l0.121,0.017l0.122,0.016l0.121,0.015l0.122,0.014l0.122,0.014l0.122,0.013l0.123,0.012l0.123,0.012l0.123,0.01l0.123,0.01l0.123,0.009l0.124,0.009l0.124,0.007l0.124,0.007l0.124,0.006l0.124,0.005l0.125,0.005l0.125,0.003l0.125,0.003l0.125,0.002l0.125,0.001l0.126,0.001l0.12,-0.001l0.12,-0.001l0.12,-0.002l0.12,-0.002l0.119,-0.003l0.12,-0.004l0.119,-0.005l0.12,-0.006l0.119,-0.006l0.119,-0.007l0.119,-0.008l0.119,-0.008l0.119,-0.009l0.119,-0.01l0.119,-0.01l0.118,-0.012l0.119,-0.012l0.118,-0.012l0.118,-0.014l0.118,-0.014l0.118,-0.015l0.118,-0.015l0.117,-0.017l0.118,-0.017l0.117,-0.017l0.117,-0.019l0.117,-0.019l0.117,-0.02l0.117,-0.02l0.116,-0.021l0.117,-0.022l0.116,-0.023l0.116,-0.023l0.116,-0.024l0.116,-0.025l0.115,-0.025l0.115,-0.026l0.116,-0.027l0.115,-0.027l0.114,-0.028l0.115,-0.029l0.114,-0.03l0.114,-0.03l0.114,-0.031l0.114,-0.031l0.114,-0.033l0.113,-0.033l0.113,-0.033l0.113,-0.034l0.113,-0.035l0.112,-0.036l0.113,-0.036l0.112,-0.037l0.111,-0.038l0.112,-0.038l0.111,-0.039l0.111,-0.04l0.111,-0.04l0.111,-0.041l0.11,-0.042l0.11,-0.042l0.11,-0.043l0.109,-0.044l0.109,-0.044l0.109,-0.045l0.109,-0.045l0.109,-0.047l0.108,-0.047l0.108,-0.047l0.107,-0.048l0.108,-0.049l0.107,-0.05l0.106,-0.05l0.107,-0.051l0.106,-0.051l0.106,-0.052l0.105,-0.053l0.105,-0.053l0.105,-0.054l0.105,-0.055l0.104,-0.055l0.104,-0.056l0.104,-0.057l0.103,-0.057l0.103,-0.058l0.103,-0.058l0.102,-0.059l0.102,-0.06l0.102,-0.06l0.101,-0.061l0.101,-0.062l0.1,-0.062l0.101,-0.063l0.099,-0.063l0.1,-0.064l0.099,-0.065l0.099,-0.065l0.098,-0.066l0.098,-0.067l0.098,-0.067l0.097,-0.068l0.097,-0.068l0.096,-0.069l0.097,-0.069l0.095,-0.071l0.096,-0.07l0.095,-0.072l0.094,-0.072l0.094,-0.072l0.094,-0.074l0.093,-0.073l0.093,-0.075l0.093,-0.075l0.092,-0.075l0.091,-0.077l0.091,-0.076l0.091,-0.078l0.091,-0.078l0.09,-0.078l0.089,-0.079l0.089,-0.08l0.089,-0.08l0.088,-0.081l0.088,-0.082l0.087,-0.082l0.087,-0.082l0.086,-0.084l0.298,-0.29l0.038,-0.043l0.089,-0.092l0.084,-0.086l0.082,-0.087l0.082,-0.087l0.082,-0.088l0.081,-0.088l0.08,-0.089l0.08,-0.089l0.079,-0.089l0.078,-0.09l0.078,-0.091l0.078,-0.091l0.076,-0.091l0.077,-0.091l0.075,-0.092l0.075,-0.093l0.075,-0.093l0.073,-0.093l0.074,-0.094l0.072,-0.094l0.072,-0.094l0.072,-0.095l0.07,-0.096l0.07,-0.095l0.07,-0.097l0.069,-0.096l0.068,-0.097l0.068,-0.097l0.067,-0.098l0.067,-0.098l0.066,-0.098l0.065,-0.099l0.065,-0.099l0.064,-0.1l0.063,-0.099l0.063,-0.101l0.062,-0.1l0.062,-0.101l0.061,-0.101l0.06,-0.102l0.06,-0.102l0.059,-0.102l0.058,-0.103l0.058,-0.103l0.057,-0.103l0.057,-0.104l0.056,-0.104l0.055,-0.104l0.055,-0.105l0.054,-0.105l0.053,-0.105l0.053,-0.105l0.052,-0.106l0.051,-0.106l0.051,-0.107l0.05,-0.106l0.05,-0.107l0.049,-0.108l0.048,-0.107l0.047,-0.108l0.047,-0.108l0.046,-0.109l0.046,-0.108l0.045,-0.109l0.044,-0.11l0.044,-0.109l0.043,-0.11l0.042,-0.11l0.042,-0.11l0.041,-0.111l0.04,-0.111l0.04,-0.111l0.039,-0.111l0.038,-0.112l0.038,-0.111l0.037,-0.112l0.036,-0.113l0.036,-0.112l0.035,-0.113l0.034,-0.113l0.033,-0.113l0.033,-0.113l0.033,-0.114l0.031,-0.114l0.031,-0.114l0.03,-0.114l0.03,-0.114l0.029,-0.115l0.028,-0.114l0.027,-0.115l0.027,-0.116l0.026,-0.115l0.025,-0.115l0.025,-0.116l0.024,-0.116l0.023,-0.116l0.023,-0.116l0.022,-0.117l0.021,-0.116l0.02,-0.117l0.02,-0.117l0.019,-0.117l0.019,-0.117l0.017,-0.117l0.017,-0.118l0.017,-0.117l0.015,-0.118l0.015,-0.118l0.014,-0.118l0.014,-0.118l0.012,-0.118l0.012,-0.119l0.011,-0.118l0.011,-0.119l0.01,-0.119l0.009,-0.119l0.008,-0.119l0.008,-0.119l0.007,-0.119l0.006,-0.119l0.006,-0.12l0.004,-0.119l0.004,-0.12l0.004,-0.119l0.002,-0.12l0.002,-0.12l0.001,-0.12l0.001,-0.12l-0.001,-0.126l-0.001,-0.125l-0.002,-0.125l-0.003,-0.125l-0.003,-0.125l-0.005,-0.125l-0.005,-0.124l-0.006,-0.124l-0.007,-0.124l-0.007,-0.124l-0.009,-0.124l-0.009,-0.123l-0.01,-0.123l-0.01,-0.123l-0.012,-0.123l-0.012,-0.122l-0.013,-0.123l-0.014,-0.122l-0.014,-0.122l-0.015,-0.121l-0.016,-0.122l-0.017,-0.121l-0.018,-0.121l-0.018,-0.121l-0.019,-0.12l-0.02,-0.12l-0.02,-0.12l-0.022,-0.12l-0.022,-0.12l-0.022,-0.119l-0.024,-0.119l-0.024,-0.119l-0.025,-0.118l-0.025,-0.118l-0.027,-0.118l-0.027,-0.118l-0.028,-0.118l-0.028,-0.117l-0.029,-0.117l-0.03,-0.116l-0.031,-0.117l-0.031,-0.116l-0.032,-0.116l-0.033,-0.115l-0.034,-0.116l-0.034,-0.115l-0.035,-0.115l-0.035,-0.114l-0.036,-0.114l-0.037,-0.114l-0.038,-0.114l-0.038,-0.113l-0.039,-0.113l-0.04,-0.113l-0.04,-0.112l-0.041,-0.112l-0.042,-0.112l-0.042,-0.112l-0.043,-0.111l-0.044,-0.111l-0.044,-0.11l-0.045,-0.11l-0.046,-0.11l-0.046,-0.11l-0.047,-0.109l-0.047,-0.109l-0.049,-0.109l-0.049,-0.108l-0.049,-0.108l-0.05,-0.108l-0.051,-0.107l-0.051,-0.107l-0.053,-0.106l-0.052,-0.107l-0.054,-0.105l-0.054,-0.106l-0.054,-0.105l-0.055,-0.105l-0.056,-0.104l-0.057,-0.105l-0.057,-0.103l-0.057,-0.104l-0.059,-0.103l-0.059,-0.102l-0.059,-0.102l-0.06,-0.102l-0.061,-0.102l-0.061,-0.101l-0.062,-0.101l-0.062,-0.1l-0.064,-0.1l-0.063,-0.1l-0.064,-0.099l-0.065,-0.098l-0.066,-0.099l-0.066,-0.098l-0.066,-0.097l-0.067,-0.097l-0.068,-0.097l-0.068,-0.096l-0.069,-0.096l-0.069,-0.096l-0.07,-0.095l-0.071,-0.094l-0.071,-0.095l-0.072,-0.093l-0.072,-0.094l-0.072,-0.092l-0.074,-0.093l-0.074,-0.092l-0.074,-0.091l-0.075,-0.092l-0.075,-0.09l-0.076,-0.09l-0.077,-0.09l-0.077,-0.089l-0.077,-0.089l-0.078,-0.089l-0.079,-0.088l-0.079,-0.087l-0.079,-0.087l-0.08,-0.087l-0.081,-0.086l-0.081,-0.085l-0.082,-0.085l-0.082,-0.085l-0.082,-0.084l-0.084,-0.083l-0.083,-0.083l-0.084,-0.083l-0.085,-0.082l-0.085,-0.082l-0.085,-0.081l-0.086,-0.08l-0.087,-0.081l-0.087,-0.079l-0.087,-0.079l-0.088,-0.079l-0.089,-0.078l-0.088,-0.077l-0.09,-0.077l-0.089,-0.077l-0.091,-0.076l-0.09,-0.075l-0.091,-0.075l-0.092,-0.074l-0.092,-0.074l-0.092,-0.073l-0.093,-0.073l-0.094,-0.072l-0.093,-0.072l-0.094,-0.071l-0.095,-0.07l-0.095,-0.07l-0.096,-0.07l-0.096,-0.069l-0.096,-0.068l-0.096,-0.068l-0.098,-0.067l-0.097,-0.066l-0.098,-0.066l-0.098,-0.066l-0.099,-0.064l-0.099,-0.065l-0.1,-0.063l-0.1,-0.063l-0.1,-0.063l-0.101,-0.062l-0.101,-0.061l-0.101,-0.061l-0.102,-0.06l-0.103,-0.059l-0.102,-0.059l-0.103,-0.058l-0.104,-0.058l-0.103,-0.057l-0.104,-0.057l-0.105,-0.055l-0.105,-0.056l-0.105,-0.054l-0.105,-0.054l-0.106,-0.054l-0.107,-0.052l-0.106,-0.052l-0.107,-0.052l-0.107,-0.051l-0.108,-0.05l-0.108,-0.049l-0.108,-0.049l-0.109,-0.048l-0.109,-0.048l-0.109,-0.047l-0.11,-0.046l-0.109,-0.046l-0.111,-0.045l-0.11,-0.044l-0.111,-0.044l-0.111,-0.043l-0.112,-0.042l-0.112,-0.042l-0.112,-0.041l-0.112,-0.04l-0.113,-0.04l-0.113,-0.039l-0.113,-0.038l-0.114,-0.038l-0.114,-0.037l-0.114,-0.036l-0.114,-0.035l-0.115,-0.035l-0.115,-0.034l-0.115,-0.034l-0.116,-0.033l-0.116,-0.032l-0.116,-0.031l-0.116,-0.031l-0.117,-0.029l-0.117,-0.03l-0.117,-0.028l-0.118,-0.028l-0.118,-0.027l-0.118,-0.026l-0.118,-0.026l-0.118,-0.025l-0.119,-0.024l-0.119,-0.024l-0.119,-0.022l-0.12,-0.022l-0.12,-0.022l-0.12,-0.02l-0.12,-0.02l-0.12,-0.019l-0.121,-0.018l-0.121,-0.018l-0.121,-0.016l-0.121,-0.016l-0.122,-0.016l-0.122,-0.014l-0.122,-0.014l-0.122,-0.013l-0.123,-0.012l-0.123,-0.012l-0.123,-0.01l-0.123,-0.01l-0.123,-0.009l-0.124,-0.009l-0.124,-0.007l-0.124,-0.007l-0.124,-0.006l-0.124,-0.005l-0.125,-0.004l-0.125,-0.004l-0.125,-0.003l-0.125,-0.002l-0.125,-0.001l-0.126,-0.001l-0.126,0.001Z" style="fill:#ffe618;"/><path d="M48.828,33.663l5.457,11.073l-5.457,11.073l5.135,0l5.457,-11.073l-5.457,-11.073l-2.567,0l-2.568,0Z" style="fill:#ffe618;fill-rule:nonzero;"/><path d="M39.706,33.663l-5.457,11.073l5.457,11.073l-2.568,0l-2.568,0l-5.456,-11.073l5.456,-11.073l5.136,0Z" style="fill:#ffe618;fill-rule:nonzero;"/></svg>