<?xml version="1.0" encoding="UTF-8" standalone="no"?><!DOCTYPE svg PUBLIC "-//W3C//DTD SVG 1.1//EN" "http://www.w3.org/Graphics/SVG/1.1/DTD/svg11.dtd"><svg width="100%" height="100%" viewBox="0 0 110 110" version="1.1" xmlns="http://www.w3.org/2000/svg" xmlns:xlink="http://www.w3.org/1999/xlink" xml:space="preserve" style="fill-rule:evenodd;clip-rule:evenodd;stroke-linejoin:round;stroke-miterlimit:1.41421;"><g><path d="M39.848,2.889l0.236,0.002l0.236,0.004l0.235,0.005l0.235,0.007l0.234,0.008l0.235,0.01l0.234,0.011l0.233,0.013l0.233,0.014l0.233,0.016l0.232,0.017l0.233,0.019l0.231,0.02l0.232,0.021l0.231,0.023l0.23,0.025l0.23,0.026l0.23,0.027l0.229,0.029l0.229,0.03l0.229,0.032l0.228,0.033l0.228,0.034l0.227,0.036l0.227,0.037l0.226,0.039l0.226,0.04l0.225,0.042l0.225,0.043l0.225,0.044l0.224,0.045l0.223,0.047l0.223,0.049l0.223,0.049l0.222,0.051l0.222,0.053l0.221,0.054l0.22,0.055l0.22,0.056l0.22,0.058l0.219,0.059l0.218,0.061l0.218,0.061l0.218,0.063l0.217,0.065l0.216,0.065l0.216,0.067l0.215,0.069l0.215,0.069l0.214,0.071l0.213,0.072l0.213,0.074l0.213,0.074l0.211,0.076l0.211,0.078l0.211,0.078l0.21,0.08l0.209,0.081l0.209,0.082l0.208,0.083l0.208,0.085l0.207,0.086l0.206,0.087l0.205,0.088l0.205,0.09l0.205,0.091l0.203,0.092l0.203,0.093l0.203,0.094l0.201,0.096l0.201,0.096l0.201,0.098l0.199,0.099l0.199,0.1l0.199,0.102l0.197,0.102l0.197,0.104l0.196,0.105l0.196,0.106l0.195,0.107l0.194,0.108l0.193,0.11l0.193,0.11l0.192,0.112l0.191,0.113l0.19,0.114l0.19,0.115l0.189,0.116l0.188,0.117l0.188,0.118l0.186,0.12l0.186,0.12l0.185,0.122l0.185,0.122l0.183,0.124l0.183,0.125l0.182,0.126l0.182,0.126l0.18,0.128l0.18,0.129l0.179,0.13l0.178,0.131l0.177,0.133l0.176,0.133l0.176,0.134l0.175,0.135l0.174,0.136l0.173,0.137l0.172,0.138l0.172,0.14l0.17,0.14l0.17,0.141l0.169,0.142l0.168,0.143l0.167,0.144l0.166,0.146l0.166,0.146l0.164,0.147l0.164,0.148l0.163,0.149l0.162,0.15l0.161,0.15l0.16,0.152l0.159,0.153l0.158,0.154l0.157,0.154l0.157,0.156l0.155,0.156l0.155,0.158l0.154,0.158l0.152,0.159l0.152,0.16l0.151,0.161l0.15,0.162l0.149,0.163l0.148,0.163l0.147,0.165l0.146,0.165l0.145,0.167l0.144,0.167l0.143,0.168l0.143,0.169l0.141,0.17l0.14,0.17l0.139,0.172l0.138,0.172l0.138,0.173l0.136,0.174l0.135,0.175l0.134,0.175l0.133,0.177l0.132,0.177l0.131,0.178l0.13,0.179l0.129,0.18l0.128,0.18l0.127,0.181l0.126,0.182l0.125,0.183l0.123,0.184l0.123,0.184l0.121,0.185l0.121,0.186l0.119,0.187l0.119,0.187l0.117,0.189l0.116,0.189l0.115,0.189l0.114,0.191l0.113,0.191l0.111,0.192l0.111,0.192l0.109,0.194l0.108,0.194l0.108,0.195l0.106,0.195l0.105,0.196l0.103,0.197l0.103,0.198l0.101,0.198l0.1,0.199l0.099,0.2l0.098,0.2l0.097,0.201l0.096,0.202l0.094,0.202l0.093,0.203l0.092,0.204l0.091,0.204l0.089,0.205l0.089,0.206l0.087,0.206l0.086,0.207l0.084,0.208l0.084,0.208l0.082,0.208l0.081,0.21l0.08,0.21l0.078,0.21l0.077,0.211l0.076,0.212l0.075,0.212l0.073,0.213l0.073,0.214l0.07,0.214l0.07,0.215l0.068,0.215l0.067,0.216l0.066,0.216l0.064,0.217l0.063,0.217l0.062,0.218l0.061,0.219l0.059,0.219l0.057,0.219l0.057,0.22l0.055,0.221l0.054,0.221l0.052,0.222l0.051,0.222l0.05,0.222l0.048,0.223l0.047,0.224l0.046,0.224l0.044,0.224l0.043,0.225l0.041,0.226l0.041,0.226l0.038,0.226l0.037,0.227l0.036,0.227l0.035,0.228l0.033,0.228l0.032,0.228l0.03,0.229l0.028,0.23l0.028,0.229l0.026,0.231l0.024,0.23l0.023,0.231l0.022,0.231l0.02,0.232l0.019,0.232l0.017,0.233l0.015,0.232l0.015,0.234l0.012,0.233l0.012,0.234l0.009,0.234l0.009,0.235l0.007,0.235l0.005,0.235l0.004,0.235l0.002,0.236l0.001,0.236l-0.001,0.226l-0.002,0.225l-0.004,0.226l-0.004,0.225l-0.007,0.225l-0.007,0.224l-0.009,0.225l-0.01,0.224l-0.012,0.225l-0.013,0.224l-0.015,0.224l-0.015,0.223l-0.018,0.224l-0.018,0.223l-0.02,0.223l-0.021,0.223l-0.023,0.223l-0.023,0.222l-0.026,0.222l-0.026,0.222l-0.028,0.222l-0.029,0.221l-0.031,0.221l-0.032,0.221l-0.033,0.22l-0.035,0.221l-0.036,0.22l-0.037,0.219l-0.038,0.22l-0.04,0.219l-0.041,0.219l-0.043,0.218l-0.044,0.218l-0.045,0.218l-0.046,0.217l-0.048,0.218l-0.049,0.216l-0.05,0.217l-0.052,0.216l-0.052,0.216l-0.055,0.215l-0.055,0.215l-0.057,0.215l-0.058,0.214l-0.059,0.214l-0.061,0.213l-0.062,0.213l-0.063,0.213l-0.064,0.212l-0.066,0.212l-0.067,0.211l-0.068,0.211l-0.069,0.21l-0.071,0.21l-0.072,0.21l-0.073,0.209l-0.075,0.209l-0.076,0.208l-0.077,0.208l-0.078,0.207l-0.079,0.207l-0.081,0.206l-0.082,0.206l-0.083,0.205l-0.085,0.205l-0.085,0.204l-0.087,0.204l-0.088,0.203l-0.09,0.203l-0.09,0.202l-0.092,0.202l-0.093,0.201l-0.094,0.2l-0.096,0.2l-0.097,0.2l-0.097,0.199l-0.1,0.198l-0.1,0.198l-0.101,0.197l-0.103,0.197l-0.104,0.195l-0.105,0.196l-0.106,0.195l-0.108,0.194l-0.108,0.193l-0.11,0.193l-0.111,0.192l-0.112,0.192l-0.114,0.191l-0.114,0.19l-0.116,0.19l-0.117,0.189l-0.118,0.188l-0.119,0.188l-0.121,0.187l-0.121,0.186l-0.123,0.186l-0.124,0.185l-0.125,0.184l-0.126,0.184l-0.128,0.183l-0.128,0.182l-0.13,0.181l-0.13,0.181l-0.132,0.18l-0.133,0.179l-0.135,0.178l-0.135,0.178l-0.136,0.177l-0.138,0.176l-0.139,0.175l-0.14,0.175l-0.141,0.174l-0.088,0.108l8.839,8.839l0.055,-0.061l0.282,-0.255l0.305,-0.226l0.325,-0.196l0.343,-0.162l0.358,-0.128l0.368,-0.092l0.376,-0.056l0.379,-0.018l0.379,0.018l0.376,0.056l0.368,0.092l0.357,0.128l0.344,0.162l0.325,0.196l0.305,0.226l0.282,0.255l26.378,26.378l-11.059,11.06l-26.379,-26.379l-0.255,-0.281l-0.226,-0.305l-0.195,-0.325l-0.163,-0.344l-0.128,-0.357l-0.092,-0.368l-0.056,-0.376l-0.018,-0.379l0.018,-0.379l0.056,-0.376l0.092,-0.368l0.128,-0.358l0.163,-0.343l0.195,-0.326l0.226,-0.305l0.255,-0.281l0.061,-0.056l-8.884,-8.884l-0.157,0.124l-0.176,0.137l-0.177,0.137l-0.178,0.135l-0.178,0.134l-0.179,0.134l-0.18,0.132l-0.181,0.13l-0.181,0.13l-0.182,0.128l-0.183,0.128l-0.184,0.126l-0.184,0.125l-0.185,0.124l-0.186,0.123l-0.186,0.121l-0.187,0.121l-0.188,0.119l-0.188,0.118l-0.189,0.117l-0.19,0.116l-0.19,0.114l-0.191,0.114l-0.192,0.112l-0.192,0.111l-0.193,0.11l-0.193,0.108l-0.194,0.108l-0.195,0.106l-0.196,0.105l-0.196,0.104l-0.196,0.103l-0.197,0.101l-0.198,0.1l-0.198,0.099l-0.199,0.098l-0.199,0.097l-0.2,0.095l-0.201,0.095l-0.201,0.093l-0.202,0.092l-0.202,0.09l-0.203,0.089l-0.203,0.089l-0.204,0.087l-0.204,0.085l-0.205,0.085l-0.205,0.083l-0.206,0.082l-0.206,0.081l-0.207,0.079l-0.207,0.078l-0.208,0.077l-0.208,0.076l-0.209,0.075l-0.209,0.073l-0.21,0.072l-0.21,0.071l-0.21,0.069l-0.211,0.068l-0.211,0.067l-0.212,0.066l-0.212,0.064l-0.213,0.063l-0.213,0.062l-0.213,0.061l-0.214,0.059l-0.214,0.058l-0.215,0.057l-0.215,0.055l-0.215,0.055l-0.216,0.052l-0.216,0.052l-0.217,0.05l-0.216,0.049l-0.217,0.048l-0.218,0.046l-0.218,0.045l-0.218,0.044l-0.218,0.043l-0.219,0.041l-0.219,0.04l-0.22,0.038l-0.219,0.037l-0.22,0.036l-0.22,0.035l-0.221,0.033l-0.221,0.032l-0.221,0.031l-0.221,0.029l-0.222,0.028l-0.222,0.026l-0.222,0.025l-0.222,0.024l-0.223,0.023l-0.223,0.021l-0.223,0.02l-0.223,0.018l-0.224,0.018l-0.223,0.015l-0.224,0.015l-0.224,0.013l-0.224,0.011l-0.225,0.011l-0.225,0.009l-0.224,0.007l-0.225,0.007l-0.225,0.004l-0.226,0.004l-0.225,0.002l-0.226,0.001l-0.236,-0.001l-0.236,-0.002l-0.235,-0.004l-0.235,-0.006l-0.235,-0.006l-0.235,-0.009l-0.234,-0.009l-0.234,-0.012l-0.233,-0.012l-0.234,-0.015l-0.232,-0.015l-0.233,-0.018l-0.232,-0.018l-0.232,-0.02l-0.231,-0.022l-0.231,-0.023l-0.23,-0.024l-0.231,-0.026l-0.229,-0.028l-0.23,-0.028l-0.229,-0.031l-0.228,-0.031l-0.228,-0.033l-0.228,-0.035l-0.227,-0.036l-0.227,-0.037l-0.226,-0.039l-0.226,-0.04l-0.226,-0.041l-0.224,-0.043l-0.225,-0.044l-0.224,-0.046l-0.224,-0.047l-0.223,-0.048l-0.222,-0.05l-0.222,-0.051l-0.222,-0.052l-0.221,-0.054l-0.221,-0.055l-0.22,-0.057l-0.219,-0.057l-0.219,-0.06l-0.219,-0.06l-0.218,-0.062l-0.217,-0.063l-0.217,-0.064l-0.216,-0.066l-0.216,-0.067l-0.215,-0.068l-0.215,-0.07l-0.214,-0.071l-0.214,-0.072l-0.212,-0.073l-0.213,-0.075l-0.212,-0.076l-0.211,-0.077l-0.21,-0.078l-0.21,-0.08l-0.21,-0.081l-0.208,-0.082l-0.208,-0.084l-0.208,-0.084l-0.207,-0.086l-0.206,-0.087l-0.206,-0.089l-0.205,-0.089l-0.204,-0.091l-0.204,-0.092l-0.203,-0.093l-0.202,-0.094l-0.202,-0.096l-0.201,-0.097l-0.2,-0.098l-0.2,-0.099l-0.199,-0.1l-0.198,-0.101l-0.198,-0.103l-0.196,-0.104l-0.197,-0.104l-0.195,-0.106l-0.195,-0.108l-0.194,-0.108l-0.193,-0.109l-0.193,-0.111l-0.192,-0.111l-0.191,-0.113l-0.191,-0.114l-0.189,-0.115l-0.189,-0.116l-0.189,-0.117l-0.187,-0.119l-0.187,-0.119l-0.186,-0.121l-0.185,-0.121l-0.184,-0.123l-0.184,-0.123l-0.183,-0.125l-0.182,-0.126l-0.181,-0.127l-0.18,-0.128l-0.18,-0.129l-0.179,-0.13l-0.178,-0.131l-0.177,-0.132l-0.177,-0.133l-0.175,-0.134l-0.175,-0.135l-0.174,-0.136l-0.173,-0.138l-0.172,-0.138l-0.172,-0.139l-0.17,-0.14l-0.17,-0.141l-0.169,-0.143l-0.168,-0.143l-0.167,-0.144l-0.167,-0.145l-0.165,-0.146l-0.164,-0.147l-0.164,-0.148l-0.163,-0.149l-0.162,-0.15l-0.161,-0.151l-0.16,-0.152l-0.159,-0.152l-0.158,-0.154l-0.158,-0.155l-0.156,-0.155l-0.156,-0.157l-0.154,-0.157l-0.154,-0.158l-0.153,-0.159l-0.152,-0.161l-0.15,-0.161l-0.15,-0.161l-0.149,-0.163l-0.148,-0.164l-0.147,-0.164l-0.146,-0.166l-0.145,-0.166l-0.145,-0.167l-0.143,-0.168l-0.142,-0.169l-0.141,-0.17l-0.14,-0.17l-0.139,-0.172l-0.139,-0.172l-0.137,-0.173l-0.136,-0.174l-0.135,-0.175l-0.134,-0.176l-0.133,-0.176l-0.133,-0.177l-0.131,-0.178l-0.13,-0.179l-0.129,-0.18l-0.127,-0.18l-0.127,-0.182l-0.126,-0.182l-0.125,-0.183l-0.124,-0.183l-0.122,-0.185l-0.122,-0.185l-0.12,-0.186l-0.12,-0.186l-0.118,-0.188l-0.117,-0.188l-0.116,-0.189l-0.115,-0.19l-0.114,-0.19l-0.113,-0.191l-0.112,-0.192l-0.11,-0.193l-0.109,-0.193l-0.109,-0.194l-0.107,-0.195l-0.106,-0.196l-0.105,-0.196l-0.104,-0.197l-0.102,-0.197l-0.101,-0.199l-0.101,-0.199l-0.099,-0.199l-0.098,-0.201l-0.096,-0.201l-0.096,-0.201l-0.094,-0.203l-0.093,-0.203l-0.092,-0.203l-0.091,-0.205l-0.09,-0.205l-0.088,-0.205l-0.087,-0.207l-0.086,-0.206l-0.085,-0.208l-0.083,-0.208l-0.082,-0.209l-0.081,-0.209l-0.08,-0.21l-0.078,-0.211l-0.078,-0.211l-0.076,-0.212l-0.074,-0.212l-0.074,-0.213l-0.072,-0.213l-0.071,-0.214l-0.069,-0.215l-0.068,-0.215l-0.067,-0.216l-0.066,-0.216l-0.065,-0.217l-0.063,-0.218l-0.061,-0.218l-0.061,-0.218l-0.059,-0.219l-0.058,-0.22l-0.056,-0.22l-0.055,-0.22l-0.054,-0.221l-0.052,-0.222l-0.052,-0.222l-0.049,-0.223l-0.049,-0.223l-0.047,-0.223l-0.045,-0.224l-0.044,-0.225l-0.043,-0.225l-0.042,-0.225l-0.04,-0.226l-0.038,-0.226l-0.038,-0.227l-0.036,-0.227l-0.034,-0.228l-0.033,-0.228l-0.032,-0.229l-0.03,-0.229l-0.029,-0.229l-0.027,-0.23l-0.026,-0.23l-0.024,-0.23l-0.023,-0.231l-0.022,-0.232l-0.02,-0.231l-0.019,-0.233l-0.017,-0.232l-0.016,-0.233l-0.014,-0.233l-0.013,-0.234l-0.011,-0.233l-0.01,-0.235l-0.008,-0.234l-0.007,-0.235l-0.005,-0.235l-0.004,-0.236l-0.002,-0.236l-0.001,-0.236l0.001,-0.236l0.002,-0.236l0.004,-0.235l0.005,-0.235l0.007,-0.235l0.008,-0.235l0.01,-0.234l0.011,-0.234l0.013,-0.233l0.014,-0.234l0.016,-0.232l0.017,-0.233l0.019,-0.232l0.02,-0.232l0.022,-0.231l0.023,-0.231l0.024,-0.23l0.026,-0.231l0.027,-0.229l0.029,-0.23l0.03,-0.229l0.032,-0.228l0.033,-0.228l0.034,-0.228l0.036,-0.227l0.038,-0.227l0.038,-0.226l0.04,-0.226l0.042,-0.226l0.043,-0.225l0.044,-0.224l0.045,-0.224l0.047,-0.224l0.049,-0.223l0.049,-0.222l0.052,-0.222l0.052,-0.222l0.054,-0.221l0.055,-0.221l0.056,-0.22l0.058,-0.219l0.059,-0.219l0.061,-0.219l0.061,-0.218l0.063,-0.217l0.065,-0.217l0.066,-0.216l0.067,-0.216l0.068,-0.215l0.069,-0.215l0.071,-0.214l0.072,-0.214l0.074,-0.212l0.074,-0.213l0.076,-0.212l0.078,-0.211l0.078,-0.21l0.08,-0.21l0.081,-0.21l0.082,-0.208l0.083,-0.208l0.085,-0.208l0.086,-0.207l0.087,-0.206l0.088,-0.206l0.09,-0.205l0.091,-0.204l0.092,-0.204l0.093,-0.203l0.094,-0.202l0.096,-0.202l0.096,-0.201l0.098,-0.2l0.099,-0.2l0.101,-0.199l0.101,-0.198l0.102,-0.198l0.104,-0.197l0.105,-0.196l0.106,-0.195l0.107,-0.195l0.109,-0.194l0.109,-0.194l0.11,-0.192l0.112,-0.192l0.113,-0.191l0.114,-0.191l0.115,-0.189l0.116,-0.189l0.117,-0.189l0.118,-0.187l0.12,-0.187l0.12,-0.186l0.122,-0.185l0.122,-0.184l0.124,-0.184l0.125,-0.183l0.126,-0.182l0.127,-0.181l0.127,-0.18l0.129,-0.18l0.13,-0.179l0.131,-0.178l0.133,-0.177l0.133,-0.177l0.134,-0.175l0.135,-0.175l0.136,-0.174l0.137,-0.173l0.139,-0.172l0.139,-0.172l0.14,-0.17l0.141,-0.17l0.142,-0.169l0.143,-0.168l0.145,-0.167l0.145,-0.167l0.146,-0.165l0.147,-0.165l0.148,-0.163l0.149,-0.163l0.15,-0.162l0.15,-0.161l0.152,-0.16l0.153,-0.159l0.154,-0.158l0.154,-0.158l0.156,-0.156l0.156,-0.156l0.158,-0.154l0.158,-0.154l0.159,-0.153l0.16,-0.152l0.161,-0.15l0.162,-0.15l0.163,-0.149l0.164,-0.148l0.164,-0.147l0.165,-0.146l0.167,-0.146l0.167,-0.144l0.168,-0.143l0.169,-0.142l0.17,-0.141l0.17,-0.14l0.172,-0.14l0.172,-0.138l0.173,-0.137l0.174,-0.136l0.175,-0.135l0.175,-0.134l0.177,-0.133l0.177,-0.133l0.178,-0.131l0.179,-0.13l0.18,-0.129l0.18,-0.128l0.181,-0.126l0.182,-0.126l0.183,-0.125l0.184,-0.124l0.184,-0.122l0.185,-0.122l0.186,-0.12l0.187,-0.12l0.187,-0.118l0.189,-0.117l0.189,-0.116l0.189,-0.115l0.191,-0.114l0.191,-0.113l0.192,-0.112l0.193,-0.11l0.193,-0.11l0.194,-0.108l0.195,-0.107l0.195,-0.106l0.196,-0.105l0.197,-0.104l0.198,-0.102l0.198,-0.102l0.199,-0.1l0.2,-0.099l0.2,-0.098l0.201,-0.096l0.202,-0.096l0.202,-0.094l0.203,-0.093l0.204,-0.092l0.204,-0.091l0.205,-0.09l0.206,-0.088l0.206,-0.087l0.207,-0.086l0.208,-0.085l0.208,-0.083l0.208,-0.082l0.21,-0.081l0.21,-0.08l0.21,-0.078l0.211,-0.078l0.212,-0.076l0.213,-0.074l0.212,-0.074l0.214,-0.072l0.214,-0.071l0.215,-0.069l0.215,-0.069l0.216,-0.067l0.216,-0.065l0.217,-0.065l0.217,-0.063l0.218,-0.061l0.219,-0.061l0.219,-0.059l0.219,-0.058l0.22,-0.056l0.221,-0.055l0.221,-0.054l0.222,-0.053l0.222,-0.051l0.222,-0.049l0.223,-0.049l0.224,-0.047l0.224,-0.045l0.225,-0.044l0.224,-0.043l0.226,-0.042l0.226,-0.04l0.226,-0.039l0.227,-0.037l0.227,-0.036l0.228,-0.034l0.228,-0.033l0.228,-0.032l0.229,-0.03l0.23,-0.029l0.229,-0.027l0.231,-0.026l0.23,-0.025l0.231,-0.023l0.231,-0.021l0.232,-0.02l0.232,-0.019l0.233,-0.017l0.232,-0.016l0.234,-0.014l0.233,-0.013l0.234,-0.011l0.234,-0.01l0.235,-0.008l0.235,-0.007l0.235,-0.005l0.235,-0.004l0.236,-0.002l0.236,-0.001l0.236,0.001Zm-0.422,7.737l-0.186,0.002l-0.186,0.003l-0.185,0.004l-0.186,0.006l-0.185,0.006l-0.184,0.008l-0.185,0.009l-0.184,0.01l-0.183,0.011l-0.184,0.012l-0.183,0.014l-0.183,0.015l-0.182,0.016l-0.182,0.017l-0.182,0.018l-0.181,0.019l-0.182,0.02l-0.18,0.022l-0.181,0.022l-0.18,0.024l-0.18,0.025l-0.179,0.026l-0.179,0.027l-0.179,0.028l-0.179,0.03l-0.178,0.03l-0.177,0.032l-0.178,0.032l-0.177,0.034l-0.176,0.035l-0.176,0.036l-0.176,0.037l-0.176,0.038l-0.175,0.039l-0.175,0.04l-0.174,0.041l-0.174,0.043l-0.173,0.043l-0.174,0.044l-0.172,0.046l-0.173,0.046l-0.172,0.048l-0.171,0.048l-0.171,0.05l-0.171,0.051l-0.17,0.051l-0.17,0.053l-0.169,0.054l-0.169,0.055l-0.169,0.056l-0.168,0.056l-0.168,0.058l-0.167,0.059l-0.167,0.06l-0.166,0.061l-0.166,0.061l-0.166,0.063l-0.165,0.064l-0.164,0.065l-0.164,0.066l-0.164,0.066l-0.163,0.068l-0.162,0.069l-0.163,0.069l-0.161,0.071l-0.161,0.072l-0.161,0.072l-0.16,0.074l-0.16,0.074l-0.159,0.075l-0.159,0.077l-0.158,0.077l-0.158,0.078l-0.157,0.079l-0.156,0.081l-0.156,0.081l-0.156,0.081l-0.155,0.083l-0.154,0.084l-0.154,0.085l-0.154,0.085l-0.153,0.087l-0.152,0.087l-0.152,0.088l-0.151,0.09l-0.15,0.09l-0.15,0.091l-0.15,0.091l-0.149,0.093l-0.148,0.094l-0.148,0.094l-0.147,0.095l-0.146,0.097l-0.146,0.097l-0.146,0.098l-0.144,0.098l-0.144,0.1l-0.144,0.1l-0.143,0.102l-0.142,0.102l-0.142,0.103l-0.141,0.104l-0.14,0.104l-0.14,0.106l-0.139,0.106l-0.139,0.107l-0.137,0.108l-0.138,0.109l-0.136,0.109l-0.136,0.11l-0.135,0.111l-0.135,0.112l-0.133,0.113l-0.134,0.114l-0.132,0.114l-0.132,0.115l-0.131,0.116l-0.131,0.116l-0.129,0.117l-0.129,0.119l-0.129,0.118l-0.127,0.12l-0.127,0.12l-0.126,0.121l-0.126,0.122l-0.125,0.123l-0.124,0.123l-0.123,0.124l-0.123,0.125l-0.121,0.126l-0.122,0.126l-0.12,0.127l-0.12,0.127l-0.118,0.129l-0.118,0.129l-0.118,0.129l-0.116,0.131l-0.116,0.131l-0.115,0.132l-0.114,0.132l-0.114,0.133l-0.113,0.134l-0.111,0.135l-0.112,0.135l-0.11,0.136l-0.109,0.136l-0.109,0.138l-0.108,0.137l-0.107,0.139l-0.106,0.139l-0.106,0.14l-0.104,0.14l-0.104,0.141l-0.103,0.142l-0.102,0.142l-0.102,0.143l-0.1,0.144l-0.1,0.144l-0.098,0.144l-0.098,0.146l-0.097,0.146l-0.096,0.146l-0.096,0.147l-0.094,0.148l-0.094,0.148l-0.093,0.149l-0.091,0.15l-0.091,0.15l-0.09,0.15l-0.09,0.151l-0.088,0.152l-0.087,0.152l-0.087,0.153l-0.085,0.154l-0.085,0.154l-0.084,0.154l-0.083,0.155l-0.081,0.156l-0.081,0.156l-0.081,0.156l-0.079,0.157l-0.078,0.158l-0.077,0.158l-0.076,0.159l-0.076,0.159l-0.074,0.16l-0.074,0.16l-0.072,0.161l-0.072,0.161l-0.071,0.161l-0.069,0.162l-0.069,0.163l-0.068,0.163l-0.066,0.164l-0.066,0.164l-0.065,0.164l-0.064,0.165l-0.063,0.166l-0.061,0.166l-0.061,0.166l-0.06,0.167l-0.059,0.167l-0.058,0.168l-0.056,0.168l-0.056,0.168l-0.055,0.169l-0.054,0.17l-0.052,0.17l-0.052,0.17l-0.051,0.171l-0.05,0.171l-0.048,0.171l-0.048,0.172l-0.046,0.173l-0.046,0.172l-0.044,0.174l-0.043,0.173l-0.043,0.174l-0.041,0.174l-0.04,0.175l-0.039,0.175l-0.038,0.176l-0.037,0.175l-0.036,0.177l-0.035,0.176l-0.034,0.177l-0.032,0.178l-0.032,0.177l-0.03,0.178l-0.03,0.179l-0.028,0.179l-0.027,0.179l-0.026,0.179l-0.025,0.18l-0.024,0.18l-0.022,0.18l-0.022,0.181l-0.02,0.181l-0.019,0.182l-0.018,0.182l-0.017,0.182l-0.016,0.182l-0.015,0.183l-0.013,0.183l-0.013,0.184l-0.011,0.183l-0.01,0.184l-0.009,0.185l-0.008,0.184l-0.006,0.185l-0.006,0.185l-0.004,0.186l-0.003,0.186l-0.002,0.186l0,0.186l0,0.187l0.002,0.186l0.003,0.186l0.004,0.185l0.006,0.185l0.006,0.185l0.008,0.185l0.009,0.184l0.01,0.184l0.011,0.184l0.013,0.183l0.013,0.184l0.015,0.182l0.016,0.183l0.017,0.182l0.018,0.182l0.019,0.181l0.02,0.181l0.022,0.181l0.022,0.181l0.024,0.18l0.025,0.18l0.026,0.179l0.027,0.179l0.028,0.179l0.03,0.178l0.03,0.178l0.032,0.178l0.032,0.177l0.034,0.177l0.035,0.177l0.036,0.176l0.037,0.176l0.038,0.175l0.039,0.176l0.04,0.174l0.041,0.175l0.043,0.174l0.043,0.173l0.044,0.173l0.046,0.173l0.046,0.172l0.048,0.172l0.048,0.172l0.05,0.171l0.051,0.171l0.052,0.17l0.052,0.17l0.054,0.169l0.055,0.169l0.056,0.169l0.056,0.168l0.058,0.168l0.059,0.167l0.06,0.167l0.061,0.166l0.061,0.166l0.063,0.165l0.064,0.165l0.065,0.165l0.066,0.164l0.066,0.163l0.068,0.164l0.069,0.162l0.069,0.162l0.071,0.162l0.072,0.161l0.072,0.161l0.074,0.16l0.074,0.16l0.076,0.159l0.076,0.158l0.077,0.159l0.078,0.157l0.08,0.157l0.08,0.157l0.081,0.156l0.081,0.156l0.083,0.155l0.084,0.154l0.085,0.154l0.085,0.153l0.087,0.153l0.087,0.153l0.088,0.151l0.09,0.151l0.09,0.151l0.091,0.15l0.091,0.149l0.093,0.149l0.094,0.149l0.094,0.147l0.096,0.147l0.096,0.147l0.097,0.146l0.098,0.145l0.098,0.145l0.1,0.144l0.1,0.144l0.102,0.143l0.102,0.142l0.103,0.141l0.104,0.141l0.104,0.141l0.106,0.14l0.106,0.139l0.107,0.138l0.108,0.138l0.109,0.137l0.109,0.137l0.11,0.136l0.112,0.135l0.111,0.134l0.113,0.134l0.114,0.133l0.114,0.133l0.115,0.132l0.116,0.131l0.116,0.13l0.118,0.13l0.118,0.129l0.118,0.128l0.12,0.128l0.12,0.127l0.122,0.126l0.121,0.126l0.123,0.124l0.123,0.124l0.124,0.124l0.125,0.122l0.126,0.122l0.126,0.121l0.127,0.121l0.127,0.119l0.129,0.119l0.129,0.118l0.129,0.117l0.131,0.117l0.131,0.116l0.132,0.115l0.132,0.114l0.134,0.114l0.133,0.112l0.135,0.112l0.135,0.111l0.136,0.111l0.136,0.109l0.138,0.109l0.137,0.108l0.139,0.107l0.139,0.106l0.14,0.105l0.14,0.105l0.141,0.104l0.142,0.103l0.142,0.102l0.143,0.101l0.144,0.101l0.144,0.099l0.144,0.099l0.146,0.098l0.146,0.097l0.146,0.096l0.147,0.095l0.148,0.095l0.148,0.094l0.149,0.092l0.15,0.092l0.15,0.091l0.15,0.09l0.151,0.089l0.152,0.088l0.152,0.088l0.153,0.086l0.154,0.086l0.154,0.085l0.154,0.083l0.155,0.083l0.156,0.082l0.156,0.081l0.156,0.08l0.157,0.079l0.158,0.079l0.158,0.077l0.159,0.076l0.159,0.076l0.16,0.074l0.16,0.073l0.161,0.073l0.161,0.072l0.161,0.07l0.162,0.07l0.163,0.069l0.163,0.067l0.164,0.067l0.164,0.066l0.164,0.065l0.165,0.063l0.166,0.063l0.166,0.062l0.166,0.061l0.167,0.06l0.167,0.058l0.168,0.058l0.168,0.057l0.169,0.056l0.169,0.055l0.169,0.053l0.17,0.053l0.17,0.052l0.171,0.051l0.171,0.049l0.171,0.049l0.172,0.047l0.173,0.047l0.172,0.045l0.174,0.045l0.173,0.043l0.174,0.042l0.174,0.042l0.175,0.04l0.175,0.039l0.176,0.038l0.176,0.037l0.176,0.036l0.176,0.035l0.177,0.033l0.178,0.033l0.177,0.031l0.178,0.031l0.179,0.029l0.179,0.028l0.179,0.028l0.179,0.026l0.18,0.024l0.18,0.024l0.181,0.023l0.18,0.021l0.182,0.021l0.181,0.019l0.182,0.018l0.182,0.017l0.182,0.016l0.183,0.015l0.183,0.013l0.184,0.013l0.183,0.011l0.184,0.01l0.185,0.009l0.184,0.007l0.185,0.007l0.186,0.005l0.185,0.004l0.186,0.003l0.186,0.002l0.187,0.001l0.177,-0.001l0.178,-0.001l0.178,-0.003l0.178,-0.004l0.177,-0.005l0.178,-0.006l0.177,-0.007l0.177,-0.008l0.177,-0.009l0.177,-0.011l0.177,-0.011l0.177,-0.012l0.176,-0.014l0.176,-0.014l0.176,-0.016l0.176,-0.017l0.176,-0.018l0.175,-0.019l0.176,-0.019l0.175,-0.021l0.175,-0.022l0.174,-0.023l0.175,-0.025l0.174,-0.025l0.174,-0.026l0.174,-0.027l0.174,-0.029l0.173,-0.029l0.174,-0.03l0.172,-0.032l0.173,-0.032l0.173,-0.034l0.172,-0.034l0.172,-0.036l0.171,-0.037l0.172,-0.037l0.171,-0.039l0.171,-0.04l0.17,-0.04l0.171,-0.042l0.17,-0.043l0.17,-0.044l0.169,-0.045l0.169,-0.045l0.169,-0.047l0.168,-0.048l0.169,-0.049l0.167,-0.05l0.168,-0.051l0.167,-0.051l0.167,-0.053l0.167,-0.054l0.166,-0.055l0.166,-0.056l0.165,-0.057l0.165,-0.058l0.165,-0.058l0.165,-0.06l0.164,-0.061l0.163,-0.062l0.164,-0.063l0.162,-0.063l0.163,-0.065l0.162,-0.066l0.162,-0.066l0.161,-0.068l0.161,-0.069l0.161,-0.069l0.16,-0.071l0.159,-0.071l0.16,-0.073l0.158,-0.073l0.159,-0.075l0.158,-0.075l0.157,-0.076l0.157,-0.078l0.157,-0.078l0.156,-0.079l0.156,-0.08l0.155,-0.081l0.154,-0.082l0.155,-0.083l0.153,-0.084l0.154,-0.085l0.153,-0.086l0.152,-0.087l0.152,-0.087l0.151,-0.089l0.151,-0.089l0.15,-0.091l0.15,-0.091l0.149,-0.093l0.149,-0.093l0.148,-0.094l0.147,-0.095l0.148,-0.096l0.146,-0.097l0.146,-0.098l0.146,-0.098l0.144,-0.1l0.145,-0.1l0.144,-0.102l0.143,-0.102l0.142,-0.103l0.142,-0.105l0.142,-0.105l0.141,-0.106l0.14,-0.106l0.14,-0.108l0.139,-0.109l0.138,-0.109l0.138,-0.111l0.137,-0.111l0.137,-0.112l0.136,-0.113l0.135,-0.114l0.135,-0.115l0.134,-0.116l0.133,-0.116l0.133,-0.118l0.132,-0.118l0.132,-0.119l0.131,-0.12l0.13,-0.121l0.129,-0.122l0.129,-0.122l0.128,-0.124l0.442,-0.431l0.057,-0.064l0.132,-0.136l0.124,-0.128l0.122,-0.129l0.122,-0.129l0.121,-0.13l0.12,-0.131l0.119,-0.132l0.119,-0.132l0.117,-0.133l0.117,-0.133l0.115,-0.134l0.115,-0.135l0.114,-0.135l0.113,-0.136l0.112,-0.137l0.111,-0.137l0.111,-0.138l0.109,-0.138l0.109,-0.139l0.108,-0.14l0.106,-0.14l0.106,-0.141l0.105,-0.142l0.105,-0.142l0.103,-0.142l0.102,-0.144l0.102,-0.143l0.1,-0.145l0.1,-0.145l0.098,-0.145l0.098,-0.146l0.097,-0.146l0.096,-0.148l0.095,-0.147l0.094,-0.148l0.094,-0.149l0.092,-0.149l0.091,-0.15l0.091,-0.15l0.089,-0.151l0.089,-0.151l0.087,-0.152l0.087,-0.153l0.086,-0.152l0.085,-0.154l0.084,-0.153l0.083,-0.155l0.082,-0.154l0.081,-0.155l0.08,-0.156l0.079,-0.156l0.078,-0.157l0.078,-0.157l0.076,-0.157l0.075,-0.158l0.075,-0.159l0.073,-0.158l0.073,-0.16l0.071,-0.159l0.071,-0.16l0.069,-0.161l0.069,-0.161l0.068,-0.161l0.066,-0.162l0.066,-0.162l0.065,-0.163l0.063,-0.162l0.063,-0.164l0.062,-0.163l0.061,-0.164l0.06,-0.165l0.059,-0.165l0.057,-0.165l0.057,-0.165l0.056,-0.166l0.055,-0.166l0.054,-0.167l0.053,-0.167l0.052,-0.167l0.05,-0.168l0.05,-0.167l0.049,-0.169l0.048,-0.168l0.047,-0.169l0.046,-0.169l0.044,-0.17l0.044,-0.169l0.043,-0.17l0.042,-0.171l0.04,-0.17l0.04,-0.171l0.039,-0.171l0.037,-0.172l0.037,-0.171l0.036,-0.172l0.034,-0.172l0.034,-0.173l0.032,-0.173l0.032,-0.173l0.03,-0.173l0.029,-0.173l0.029,-0.174l0.027,-0.174l0.026,-0.174l0.025,-0.174l0.025,-0.175l0.023,-0.174l0.022,-0.175l0.021,-0.175l0.02,-0.176l0.018,-0.175l0.018,-0.176l0.017,-0.176l0.016,-0.176l0.014,-0.176l0.014,-0.176l0.012,-0.177l0.011,-0.177l0.011,-0.177l0.009,-0.177l0.008,-0.177l0.007,-0.177l0.006,-0.178l0.005,-0.177l0.004,-0.178l0.003,-0.178l0.001,-0.178l0.001,-0.177l-0.001,-0.187l-0.002,-0.186l-0.003,-0.186l-0.004,-0.186l-0.005,-0.185l-0.007,-0.185l-0.007,-0.184l-0.009,-0.185l-0.01,-0.184l-0.011,-0.183l-0.013,-0.184l-0.013,-0.183l-0.015,-0.183l-0.016,-0.182l-0.017,-0.182l-0.018,-0.182l-0.019,-0.182l-0.021,-0.181l-0.021,-0.18l-0.023,-0.181l-0.024,-0.18l-0.024,-0.18l-0.026,-0.179l-0.028,-0.179l-0.028,-0.179l-0.029,-0.179l-0.031,-0.178l-0.031,-0.177l-0.033,-0.178l-0.033,-0.177l-0.035,-0.176l-0.036,-0.176l-0.037,-0.176l-0.038,-0.176l-0.039,-0.175l-0.04,-0.175l-0.042,-0.174l-0.042,-0.174l-0.043,-0.173l-0.045,-0.174l-0.045,-0.172l-0.047,-0.173l-0.047,-0.172l-0.049,-0.171l-0.049,-0.171l-0.051,-0.171l-0.052,-0.17l-0.053,-0.17l-0.053,-0.17l-0.055,-0.169l-0.056,-0.168l-0.057,-0.168l-0.057,-0.168l-0.059,-0.167l-0.06,-0.167l-0.061,-0.166l-0.062,-0.166l-0.063,-0.166l-0.063,-0.165l-0.065,-0.164l-0.066,-0.164l-0.067,-0.164l-0.067,-0.163l-0.069,-0.163l-0.07,-0.162l-0.07,-0.161l-0.072,-0.161l-0.072,-0.161l-0.074,-0.16l-0.074,-0.16l-0.076,-0.159l-0.076,-0.159l-0.077,-0.158l-0.079,-0.158l-0.079,-0.157l-0.08,-0.156l-0.081,-0.156l-0.082,-0.156l-0.083,-0.155l-0.083,-0.154l-0.085,-0.154l-0.086,-0.154l-0.086,-0.153l-0.087,-0.152l-0.089,-0.152l-0.089,-0.151l-0.09,-0.15l-0.091,-0.15l-0.092,-0.15l-0.092,-0.149l-0.094,-0.148l-0.094,-0.148l-0.096,-0.147l-0.096,-0.146l-0.097,-0.146l-0.098,-0.146l-0.099,-0.144l-0.099,-0.144l-0.101,-0.144l-0.101,-0.143l-0.102,-0.142l-0.103,-0.142l-0.104,-0.141l-0.105,-0.14l-0.105,-0.14l-0.106,-0.139l-0.107,-0.139l-0.108,-0.137l-0.109,-0.138l-0.109,-0.136l-0.111,-0.136l-0.111,-0.135l-0.112,-0.135l-0.112,-0.134l-0.114,-0.133l-0.114,-0.132l-0.115,-0.132l-0.116,-0.131l-0.116,-0.131l-0.118,-0.129l-0.118,-0.129l-0.119,-0.129l-0.119,-0.127l-0.121,-0.127l-0.121,-0.126l-0.122,-0.126l-0.122,-0.125l-0.124,-0.124l-0.124,-0.123l-0.124,-0.123l-0.126,-0.122l-0.126,-0.121l-0.127,-0.12l-0.128,-0.12l-0.128,-0.118l-0.129,-0.119l-0.13,-0.117l-0.13,-0.116l-0.131,-0.116l-0.132,-0.115l-0.133,-0.114l-0.133,-0.114l-0.134,-0.113l-0.134,-0.112l-0.135,-0.111l-0.136,-0.11l-0.137,-0.109l-0.137,-0.109l-0.138,-0.108l-0.138,-0.107l-0.139,-0.106l-0.14,-0.106l-0.14,-0.104l-0.141,-0.104l-0.142,-0.103l-0.142,-0.102l-0.143,-0.102l-0.144,-0.1l-0.144,-0.1l-0.145,-0.098l-0.145,-0.098l-0.146,-0.097l-0.146,-0.097l-0.148,-0.095l-0.147,-0.094l-0.149,-0.094l-0.148,-0.093l-0.15,-0.091l-0.15,-0.091l-0.151,-0.09l-0.151,-0.09l-0.151,-0.088l-0.153,-0.087l-0.153,-0.087l-0.153,-0.085l-0.154,-0.085l-0.154,-0.084l-0.155,-0.083l-0.156,-0.081l-0.156,-0.081l-0.157,-0.081l-0.157,-0.079l-0.157,-0.078l-0.158,-0.077l-0.159,-0.077l-0.159,-0.075l-0.16,-0.074l-0.16,-0.074l-0.161,-0.072l-0.161,-0.072l-0.162,-0.071l-0.162,-0.069l-0.162,-0.069l-0.164,-0.068l-0.163,-0.066l-0.164,-0.066l-0.165,-0.065l-0.165,-0.064l-0.165,-0.063l-0.166,-0.061l-0.166,-0.061l-0.167,-0.06l-0.167,-0.059l-0.168,-0.058l-0.168,-0.057l-0.169,-0.055l-0.169,-0.055l-0.169,-0.054l-0.17,-0.053l-0.17,-0.051l-0.171,-0.051l-0.171,-0.05l-0.172,-0.048l-0.172,-0.048l-0.172,-0.046l-0.173,-0.046l-0.173,-0.044l-0.173,-0.043l-0.174,-0.043l-0.175,-0.041l-0.174,-0.04l-0.176,-0.039l-0.175,-0.038l-0.176,-0.037l-0.176,-0.036l-0.177,-0.035l-0.177,-0.034l-0.177,-0.032l-0.178,-0.032l-0.178,-0.03l-0.178,-0.03l-0.179,-0.028l-0.179,-0.027l-0.179,-0.026l-0.18,-0.025l-0.18,-0.024l-0.181,-0.022l-0.181,-0.022l-0.181,-0.02l-0.181,-0.019l-0.182,-0.018l-0.182,-0.017l-0.183,-0.016l-0.182,-0.015l-0.184,-0.014l-0.183,-0.012l-0.184,-0.011l-0.184,-0.01l-0.184,-0.009l-0.185,-0.008l-0.185,-0.006l-0.185,-0.006l-0.185,-0.004l-0.186,-0.003l-0.186,-0.002l-0.187,0l-0.186,0Z" style="fill:#18ff81;"/><path d="M42.26,17.052l11.136,22.6l-11.136,22.6l10.481,0l11.137,-22.6l-11.137,-22.6l-5.239,0l-5.242,0Z" style="fill:#19ff81;fill-rule:nonzero;"/><path d="M35.887,17.052l-11.138,22.6l11.138,22.6l-5.241,0l-5.242,0l-11.135,-22.6l11.135,-22.6l10.483,0Z" style="fill:#19ff81;fill-rule:nonzero;"/></g></svg>